<?xml version="1.0" encoding="utf-8"?>
<!-- Generator: Adobe Illustrator 15.0.0, SVG Export Plug-In . SVG Version: 6.00 Build 0)  -->
<!DOCTYPE svg PUBLIC "-//W3C//DTD SVG 1.1//EN" "http://www.w3.org/Graphics/SVG/1.1/DTD/svg11.dtd">
<svg version="1.1" id="圖層_1" xmlns="http://www.w3.org/2000/svg" xmlns:xlink="http://www.w3.org/1999/xlink" x="0px" y="0px"
	 width="600px" height="600px" viewBox="0 0 600 600" enable-background="new 0 0 600 600" xml:space="preserve">
<path fill="#F7F8F8" stroke="#231815" stroke-width="3" stroke-miterlimit="10" d="M509.133,374.742
	c0,115.874-93.933,209.808-209.807,209.808c-115.873,0-209.808-93.934-209.808-209.808c0-115.874,93.935-358.242,209.808-358.242
	C415.2,16.5,509.133,258.869,509.133,374.742z"/>
<path fill="#DCDDDD" d="M226.915,400.394c0,0,81.736-59.291,148.938,0C375.853,400.394,312.823,295.108,226.915,400.394z"/>
<path fill="#FFFFFF" stroke="#231815" stroke-width="3" stroke-miterlimit="10" d="M443.069,337.589
	c-1.326-1.411-49.863-41.709-61.663-26.348c-11.801,15.36,13.206,5.093,33.582,31.62c14.208,18.493-15.238,1.667-35.679-3.792
	c-0.618-9.583-8.565-17.172-18.307-17.172c-10.143,0-18.364,8.224-18.364,18.366s8.222,18.366,18.364,18.366
	c3.271,0,6.337-0.864,8.996-2.363C398.817,378.442,492.221,389.88,443.069,337.589z"/>
<path fill="#FFFFFF" stroke="#231815" stroke-width="3" stroke-miterlimit="10" d="M151.439,334.53
	c1.326-1.411,49.862-41.71,61.662-26.348c11.802,15.359-13.204,5.095-33.582,31.62c-14.206,18.494,15.24,1.665,35.679-3.79
	c0.618-9.585,8.565-17.174,18.305-17.174c10.144,0,18.366,8.223,18.366,18.366c0,10.143-8.223,18.367-18.366,18.367
	c-3.271,0-6.334-0.865-8.995-2.363C195.69,375.385,102.288,386.821,151.439,334.53z"/>
<polygon fill="#FFFFFF" stroke="#231815" stroke-width="3" stroke-miterlimit="10" points="264.784,177.309 264.548,171.82 
	259.913,174.767 257.505,176.298 257.382,173.447 257.148,167.96 252.513,170.907 250.622,172.109 250.525,169.871 250.29,164.382 
	245.655,167.329 241.02,170.278 245.89,172.818 247.877,173.854 250.76,175.358 252.748,176.395 255.277,177.715 257.617,178.935 
	260.148,180.255 265.019,182.796 "/>
<polygon fill="#FFFFFF" stroke="#231815" stroke-width="3" stroke-miterlimit="10" points="351.49,167.427 346.885,164.433 
	346.594,169.918 346.444,172.768 344.051,171.212 339.445,168.219 339.155,173.705 339.036,175.941 337.158,174.721 
	332.553,171.727 332.264,177.212 331.972,182.697 336.868,180.205 338.866,179.188 341.765,177.714 343.76,176.698 346.304,175.404 
	348.656,174.207 351.201,172.912 356.095,170.421 "/>
<path fill="#FFFFFF" stroke="#231815" stroke-width="3" stroke-miterlimit="10" d="M345.068,271.954
	c0,14.827-23.527,19.205-47.652,19.205c-24.127,0-39.718-4.378-39.718-19.205c0-14.825,19.561-26.846,43.686-26.846
	C325.511,245.108,345.068,257.129,345.068,271.954z"/>
<path fill="#EA5514" d="M415.029,240.559c0,8.886-11.72,13.049-26.18,13.049c-14.458,0-26.179-4.163-26.179-13.049
	c0-8.884,11.721-16.086,26.179-16.086C403.31,224.472,415.029,231.675,415.029,240.559z"/>
<path fill="#EA5514" d="M235.983,240.559c0,8.886-11.722,13.049-26.18,13.049s-26.18-4.163-26.18-13.049
	c0-8.884,11.722-16.086,26.18-16.086S235.983,231.675,235.983,240.559z"/>
<circle fill="#231815" stroke="#231815" stroke-width="3" stroke-miterlimit="10" cx="301.384" cy="248.914" r="9.773"/>
<path fill="#231815" stroke="#231815" stroke-width="3" stroke-miterlimit="10" d="M242.632,198.725
	c6.409-9.171,7.055,4.93,15.76,11.012c8.704,6.083,22.169,1.841,15.759,11.012c-6.409,9.172-18.658,11.676-27.362,5.594
	C238.083,220.261,236.223,207.896,242.632,198.725z"/>
<path fill="#231815" stroke="#231815" stroke-width="3" stroke-miterlimit="10" d="M350.261,197.687
	c-7.28-8.495-6.536,5.602-14.599,12.514c-8.063,6.91-21.878,4.016-14.599,12.511c7.283,8.495,19.72,9.779,27.783,2.869
	C356.909,218.669,357.542,206.181,350.261,197.687z"/>
<path fill="#FFFFFF" stroke="#231815" stroke-width="3" stroke-miterlimit="10" d="M353.313,332.9c0,0,9.571,5.574,0,12.135"/>
<path fill="#FFFFFF" stroke="#231815" stroke-width="3" stroke-miterlimit="10" d="M357.566,329.726c0,0,4.674,10.841,12.248,5.905"
	/>
<path fill="#FFFFFF" stroke="#231815" stroke-width="3" stroke-miterlimit="10" d="M357.566,349.696c0,0,2.308-15.781,12.248-8.081"
	/>
<path fill="none" stroke="#231815" stroke-width="3" stroke-miterlimit="10" d="M246.614,260.339c0,0,9.514,5.946,1.427,12.13"/>
<path fill="none" stroke="#231815" stroke-width="3" stroke-miterlimit="10" d="M293.351,191.188c0,0,2.141,3.096,0,4.521"/>
<path fill="none" stroke="#231815" stroke-width="3" stroke-miterlimit="10" d="M356.493,260.339c0,0-9.514,5.946-1.427,12.13"/>
<path fill="none" stroke="#231815" stroke-width="3" stroke-miterlimit="10" d="M278.46,209.971c0,0,9.514,5.946,1.427,12.13"/>
<path fill="none" stroke="#231815" stroke-width="3" stroke-miterlimit="10" d="M316.723,210.922c0,0-9.514,5.946-1.427,12.131"/>
<path fill="none" stroke="#231815" stroke-width="3" stroke-miterlimit="10" d="M299.345,191.188c0,0-2.141,3.096,0,4.521"/>
<g>
	<path fill="#FFFFFF" stroke="#231815" stroke-width="3" stroke-miterlimit="10" d="M425.041,164
		c-10.518,0-19.044-8.526-19.044-19.044c0-2.546,0-2.045,0,0.95c0,10.518-8.526,19.044-19.044,19.044
		c10.518,0,19.044,8.526,19.044,19.044c0,2.502,0,1.836,0-0.95C405.997,172.526,414.523,164,425.041,164z"/>
</g>
<path fill="#66C6F2" stroke="#231815" stroke-width="3" stroke-miterlimit="10" d="M434.957,185.404c0,0,16.736,19.863,3.476,20.585
	C425.168,206.711,435.585,190.934,434.957,185.404z"/>
</svg>
