<?xml version="1.0" encoding="utf-8"?>
<!-- Generator: Adobe Illustrator 15.0.0, SVG Export Plug-In . SVG Version: 6.00 Build 0)  -->
<!DOCTYPE svg PUBLIC "-//W3C//DTD SVG 1.1//EN" "http://www.w3.org/Graphics/SVG/1.1/DTD/svg11.dtd">
<svg version="1.1" id="圖層_1" xmlns="http://www.w3.org/2000/svg" xmlns:xlink="http://www.w3.org/1999/xlink" x="0px" y="0px"
	 width="600px" height="600px" viewBox="0 0 600 600" enable-background="new 0 0 600 600" xml:space="preserve">
<radialGradient id="SVGID_1_" cx="305.7256" cy="297.7188" r="278.9301" gradientUnits="userSpaceOnUse">
	<stop  offset="0" style="stop-color:#DCDDDD"/>
	<stop  offset="0.6713" style="stop-color:#DCDDDD"/>
	<stop  offset="0.7818" style="stop-color:#DCDDDD"/>
	<stop  offset="0.866" style="stop-color:#DEDFDF"/>
	<stop  offset="0.8963" style="stop-color:#E5E5E5"/>
	<stop  offset="0.9178" style="stop-color:#F0F1F1"/>
	<stop  offset="0.9333" style="stop-color:#FFFFFF"/>
	<stop  offset="1" style="stop-color:#FAEE00"/>
	<stop  offset="1" style="stop-color:#000000"/>
</radialGradient>
<path fill="url(#SVGID_1_)" stroke="#6A3906" stroke-width="3" stroke-miterlimit="10" d="M579.155,297.715
	c0,157.03-122.417,284.328-273.43,284.328c-151.01,0-273.43-127.298-273.43-284.328c0-157.022,122.419-284.32,273.43-284.32
	C456.738,13.395,579.155,140.693,579.155,297.715z"/>
<g>
	<path fill-rule="evenodd" clip-rule="evenodd" d="M341.328,230.924c15.188-5.446,36.698-13.394,54.458-5.149
		c-15.111,7.159-39.592,5.38-54.279,12.936c-24.237,47.471,55.014,65.754,43.034,6.823c5.208-0.12,10.39-0.238,15.6-0.358
		c8.431-0.847,2.076,13.781,4.339,19.398c18.462-8.619-0.075-29.938-0.981-42.875c2.071-8.185,14.845,5.288,23.467,3.362
		C430.379,183.288,332.58,189.804,341.328,230.924z"/>
	<path fill-rule="evenodd" clip-rule="evenodd" d="M269.77,353.18c-6.039,7.204-19.126,7.694-21.729,18.205
		c31.653,1.672,61.614,34.609,104.619,24.175c-1.26-9.478-14.528-7.021-20.117-8.398c-20.036-4.91-43.254-12.179-62.47-20.712
		C270.64,361.258,274.195,357.212,269.77,353.18z"/>
	<path fill-rule="evenodd" clip-rule="evenodd" d="M290.999,410.25c2.865,18.052,35.64,13.563,48.891,7.744
		c-9.537-6.245-33.952,0.462-44.514-10.049C292.794,407.641,291.451,408.523,290.999,410.25z"/>
	<path fill-rule="evenodd" clip-rule="evenodd" d="M188.949,218.804c4.396,15.316,25.426,1.753,35.089-0.802
		c5.82,1.57-1.428,5.023,0.267,11.693c17.614-7.619,37.508-5.213,50.487-8.957c-0.211,5.546-0.398,11.056,4.16,11.61
		c-22.554,3.304-89.961,4.661-65.097,52.183c9.093-1.475,3.396-17.084,11.252-19.749c5.689,4.67,7.687,13.225,8.322,23.201
		c9.18,1.032,14.781,5.826,27.379,3.271c2.141-14.472,10.038-23.441,6.804-43.048c20.426-5.408,21.293,9.631,20.117,26.835
		c13.627-2.947-5.337-25.386,14.97-27.639c-8.271-12.622-14.269-27.638-31.895-30.474c11.195-14.684,27.396,13.44,38.978-0.888
		C297.11,171.771,205.685,190.563,188.949,218.804z"/>
</g>
<circle fill-rule="evenodd" clip-rule="evenodd" fill="#B5B5B6" cx="119.5" cy="328.219" r="30.5"/>
<circle fill-rule="evenodd" clip-rule="evenodd" fill="#B5B5B6" cx="185.5" cy="394.387" r="30.5"/>
<circle fill-rule="evenodd" clip-rule="evenodd" fill="#B5B5B6" cx="113.5" cy="411.614" r="30.5"/>
<circle fill-rule="evenodd" clip-rule="evenodd" fill="#B5B5B6" cx="113.5" cy="240.567" r="30.5"/>
<circle fill-rule="evenodd" clip-rule="evenodd" fill="#B5B5B6" cx="336.869" cy="159.151" r="30.5"/>
<circle fill-rule="evenodd" clip-rule="evenodd" fill="#B5B5B6" cx="427.053" cy="353.181" r="30.5"/>
<circle fill-rule="evenodd" clip-rule="evenodd" fill="#B5B5B6" cx="155" cy="157.884" r="30.5"/>
<circle fill-rule="evenodd" clip-rule="evenodd" fill="#B5B5B6" cx="290.999" cy="493.384" r="30.5"/>
<circle fill-rule="evenodd" clip-rule="evenodd" fill="#B5B5B6" cx="464.551" cy="189.651" r="30.5"/>
<circle fill-rule="evenodd" clip-rule="evenodd" fill="#B5B5B6" cx="193.226" cy="493.384" r="30.5"/>
<circle fill-rule="evenodd" clip-rule="evenodd" fill="#B5B5B6" cx="364.586" cy="501.384" r="30.5"/>
<circle fill-rule="evenodd" clip-rule="evenodd" fill="#B5B5B6" cx="508.586" cy="306.384" r="30.5"/>
<circle fill-rule="evenodd" clip-rule="evenodd" fill="#B5B5B6" cx="364.586" cy="87.384" r="30.5"/>
<circle fill-rule="evenodd" clip-rule="evenodd" fill="#B5B5B6" cx="244.726" cy="127.384" r="30.5"/>
<circle fill-rule="evenodd" clip-rule="evenodd" fill="#B5B5B6" cx="478.086" cy="411.614" r="30.5"/>
</svg>
