<?xml version="1.0" encoding="utf-8"?>
<!-- Generator: Adobe Illustrator 15.0.0, SVG Export Plug-In . SVG Version: 6.00 Build 0)  -->
<!DOCTYPE svg PUBLIC "-//W3C//DTD SVG 1.1//EN" "http://www.w3.org/Graphics/SVG/1.1/DTD/svg11.dtd">
<svg version="1.1" id="圖層_1" xmlns="http://www.w3.org/2000/svg" xmlns:xlink="http://www.w3.org/1999/xlink" x="0px" y="0px"
	 width="600px" height="600px" viewBox="0 0 600 600" enable-background="new 0 0 600 600" xml:space="preserve">
<radialGradient id="SVGID_1_" cx="256.8804" cy="478.001" r="52.967" gradientUnits="userSpaceOnUse">
	<stop  offset="0" style="stop-color:#FFFFFF"/>
	<stop  offset="0.0915" style="stop-color:#FEF5F9"/>
	<stop  offset="0.2489" style="stop-color:#FBD9E8"/>
	<stop  offset="0.4531" style="stop-color:#F6ACCD"/>
	<stop  offset="0.6963" style="stop-color:#EF6EA8"/>
	<stop  offset="0.9698" style="stop-color:#E71F78"/>
	<stop  offset="1" style="stop-color:#E61673"/>
</radialGradient>
<path fill="url(#SVGID_1_)" stroke="#E61673" stroke-width="3" stroke-miterlimit="10" d="M263.166,491.349
	c-22.433,29.201-32.472,58.039-45.463,41.131c-12.991-16.908-5.336-54.288,17.097-83.49c22.433-29.198,51.148-39.164,64.139-22.253
	C311.928,443.646,285.599,462.147,263.166,491.349z"/>
<radialGradient id="SVGID_2_" cx="367.6152" cy="478.001" r="52.9673" gradientUnits="userSpaceOnUse">
	<stop  offset="0" style="stop-color:#FFFFFF"/>
	<stop  offset="0.0915" style="stop-color:#FEF5F9"/>
	<stop  offset="0.2489" style="stop-color:#FBD9E8"/>
	<stop  offset="0.4531" style="stop-color:#F6ACCD"/>
	<stop  offset="0.6963" style="stop-color:#EF6EA8"/>
	<stop  offset="0.9698" style="stop-color:#E71F78"/>
	<stop  offset="1" style="stop-color:#E61673"/>
</radialGradient>
<path fill="url(#SVGID_2_)" stroke="#E61673" stroke-width="3" stroke-miterlimit="10" d="M361.33,491.349
	c22.433,29.201,32.473,58.039,45.463,41.131c12.991-16.908,5.337-54.289-17.097-83.49c-22.433-29.198-51.148-39.164-64.14-22.253
	C312.568,443.646,338.897,462.147,361.33,491.349z"/>
<radialGradient id="SVGID_3_" cx="345.084" cy="510.3838" r="55.2204" gradientUnits="userSpaceOnUse">
	<stop  offset="0" style="stop-color:#FFFFFF"/>
	<stop  offset="0.0915" style="stop-color:#FEF5F9"/>
	<stop  offset="0.2489" style="stop-color:#FBD9E8"/>
	<stop  offset="0.4531" style="stop-color:#F6ACCD"/>
	<stop  offset="0.6963" style="stop-color:#EF6EA8"/>
	<stop  offset="0.9698" style="stop-color:#E71F78"/>
	<stop  offset="1" style="stop-color:#E61673"/>
</radialGradient>
<path fill="url(#SVGID_3_)" stroke="#E61673" stroke-width="3" stroke-miterlimit="10" d="M324.548,506.541
	c0-41.295-8.566-70.93,9.805-70.93c18.37,0,33.263,33.476,33.263,74.773c0,41.292-14.893,74.771-33.263,74.771
	C315.981,585.156,324.548,547.839,324.548,506.541z"/>
<radialGradient id="SVGID_4_" cx="270.3472" cy="513.1768" r="55.2205" gradientUnits="userSpaceOnUse">
	<stop  offset="0" style="stop-color:#FFFFFF"/>
	<stop  offset="0.0915" style="stop-color:#FEF5F9"/>
	<stop  offset="0.2489" style="stop-color:#FBD9E8"/>
	<stop  offset="0.4531" style="stop-color:#F6ACCD"/>
	<stop  offset="0.6963" style="stop-color:#EF6EA8"/>
	<stop  offset="0.9698" style="stop-color:#E71F78"/>
	<stop  offset="1" style="stop-color:#E61673"/>
</radialGradient>
<path fill="url(#SVGID_4_)" stroke="#E61673" stroke-width="3" stroke-miterlimit="10" d="M290.883,509.335
	c0-41.295,8.566-70.931-9.805-70.931c-18.371,0-33.263,33.477-33.263,74.774c0,41.292,14.892,74.771,33.263,74.771
	C299.452,587.949,290.883,550.632,290.883,509.335z"/>
<radialGradient id="SVGID_5_" cx="308.2109" cy="469.5957" r="74.5677" gradientUnits="userSpaceOnUse">
	<stop  offset="0" style="stop-color:#FFFFFF"/>
	<stop  offset="0.1701" style="stop-color:#FFFCFD"/>
	<stop  offset="0.3057" style="stop-color:#FEF2F7"/>
	<stop  offset="0.4295" style="stop-color:#FCE1ED"/>
	<stop  offset="0.5461" style="stop-color:#F9C9DF"/>
	<stop  offset="0.6578" style="stop-color:#F6ABCC"/>
	<stop  offset="0.7658" style="stop-color:#F285B6"/>
	<stop  offset="0.8708" style="stop-color:#ED589B"/>
	<stop  offset="0.971" style="stop-color:#E8267D"/>
	<stop  offset="1" style="stop-color:#E61673"/>
</radialGradient>
<path fill="url(#SVGID_5_)" stroke="#E61673" stroke-width="3" stroke-miterlimit="10" d="M374.741,469.598
	c0,45.185-19.588,81.817-69.203,81.817s-63.858-36.633-63.858-81.817c0-45.188,14.243-81.82,63.858-81.82
	S374.741,424.41,374.741,469.598z"/>
<g>
	<path fill="#E4007F" d="M342,404.523c12.821,14.092,18.426,35.025,18.426,58.415c0,42.43-18.393,76.828-64.982,76.828
		c-13.005,0-23.415-2.685-31.676-7.472c9.329,10.681,23.232,17.089,43.324,17.089c46.59,0,64.982-34.398,64.982-76.826
		C372.074,443.013,363.143,417.38,342,404.523z"/>
</g>
<radialGradient id="SVGID_6_" cx="293.2642" cy="236.9443" r="223.3138" gradientUnits="userSpaceOnUse">
	<stop  offset="0" style="stop-color:#FFFFFF"/>
	<stop  offset="0.1701" style="stop-color:#FFFCFD"/>
	<stop  offset="0.3057" style="stop-color:#FEF2F7"/>
	<stop  offset="0.4295" style="stop-color:#FCE1ED"/>
	<stop  offset="0.5461" style="stop-color:#F9C9DF"/>
	<stop  offset="0.6578" style="stop-color:#F6ABCC"/>
	<stop  offset="0.7658" style="stop-color:#F285B6"/>
	<stop  offset="0.8708" style="stop-color:#ED589B"/>
	<stop  offset="0.971" style="stop-color:#E8267D"/>
	<stop  offset="1" style="stop-color:#E61673"/>
</radialGradient>
<path fill="url(#SVGID_6_)" stroke="#E61673" stroke-width="3" stroke-miterlimit="10" d="M434.412,168.739
	c3.104-5.763,6.326-11.539,9.694-17.251c37.665-63.887,78.743-95.462,48.618-126.069c-30.126-30.612-85.08-3.637-122.745,60.252
	c-9.176,15.566-16.464,31.886-21.826,48.112c-17.558-3.565-35.944-5.467-54.889-5.467c-8.944,0-17.76,0.435-26.427,1.256
	c-5.205-14.831-12.014-29.681-20.397-43.901c-37.664-63.889-92.618-90.864-122.744-60.252
	c-30.125,30.607,10.953,62.182,48.617,126.069c0.821,1.391,1.629,2.785,2.432,4.184c-62.458,31.53-103.957,87.232-103.957,150.701
	c0,98.339,99.604,154.72,222.477,154.72c122.87,0,222.476-56.381,222.476-154.72C515.74,250.922,484.066,201.394,434.412,168.739z"
	/>
<g>
	<path fill="#E4007F" d="M457.765,189.41c28.083,29.444,44.78,66.217,44.78,106.121c0,96.693-97.943,152.131-218.759,152.131
		c-68.78,0-130.133-17.976-170.235-51.29c38.824,42.025,107.012,64.925,184.654,64.925c120.815,0,218.757-55.438,218.757-152.134
		C516.962,262.837,494.471,220.724,457.765,189.41z"/>
	<path fill="#E4007F" d="M457.765,189.41c-6.006-6.296-12.531-12.256-19.529-17.84c-0.41,0.753-0.836,1.506-1.241,2.262
		C444.336,178.657,451.268,183.868,457.765,189.41z"/>
</g>
<polygon fill="#FFFFFF" stroke="#6A3906" stroke-width="3" stroke-miterlimit="10" points="243.962,203.387 239.93,196.403 
	235.897,203.387 233.802,207.016 231.708,203.387 227.675,196.403 223.643,203.387 221.998,206.235 220.353,203.387 
	216.321,196.403 212.289,203.387 208.257,210.371 216.321,210.371 219.611,210.371 224.385,210.371 227.675,210.371 
	231.866,210.371 235.739,210.371 239.93,210.371 247.994,210.371 "/>
<ellipse fill="#6A3906" stroke="#6A3906" stroke-width="3" stroke-miterlimit="10" cx="228.125" cy="250.509" rx="28.226" ry="29.744"/>
<polygon fill="#FFFFFF" stroke="#6A3906" stroke-width="3" stroke-miterlimit="10" points="371.184,203.387 367.151,196.403 
	363.12,203.387 361.024,207.016 358.93,203.387 354.897,196.403 350.865,203.387 349.221,206.235 347.575,203.387 343.543,196.403 
	339.511,203.387 335.479,210.371 343.543,210.371 346.833,210.371 351.607,210.371 354.897,210.371 359.088,210.371 
	362.962,210.371 367.151,210.371 375.216,210.371 "/>
<radialGradient id="SVGID_7_" cx="296.7173" cy="314.2383" r="51.2629" gradientUnits="userSpaceOnUse">
	<stop  offset="0" style="stop-color:#FFFFFF"/>
	<stop  offset="0.0915" style="stop-color:#FEF5F9"/>
	<stop  offset="0.2489" style="stop-color:#FBD9E8"/>
	<stop  offset="0.4531" style="stop-color:#F6ACCD"/>
	<stop  offset="0.6963" style="stop-color:#EF6EA8"/>
	<stop  offset="0.9698" style="stop-color:#E71F78"/>
	<stop  offset="1" style="stop-color:#E61673"/>
</radialGradient>
<path fill="url(#SVGID_7_)" stroke="#6A3906" stroke-width="3" stroke-miterlimit="10" d="M360.852,319.849
	c0,21.767-34.54,28.191-69.959,28.191c-35.421,0-58.31-6.425-58.31-28.191s28.716-39.413,64.134-39.413
	C332.139,280.436,360.852,298.082,360.852,319.849z"/>
<path fill="#EA5514" d="M462.742,303.57c0,13.045-17.206,19.156-38.434,19.156c-21.226,0-38.433-6.111-38.433-19.156
	c0-13.043,17.207-23.62,38.433-23.62C445.536,279.95,462.742,290.527,462.742,303.57z"/>
<path fill="#EA5514" d="M199.884,303.57c0,13.045-17.208,19.156-38.434,19.156c-21.226,0-38.435-6.111-38.435-19.156
	c0-13.043,17.208-23.62,38.435-23.62C182.676,279.95,199.884,290.527,199.884,303.57z"/>
<circle fill="#6A3906" stroke="#6A3906" stroke-width="3" stroke-miterlimit="10" cx="296.718" cy="286.023" r="14.348"/>
<ellipse fill="#6A3906" stroke="#6A3906" stroke-width="3" stroke-miterlimit="10" cx="355.295" cy="250.509" rx="28.226" ry="29.744"/>
</svg>
