<?xml version="1.0" encoding="utf-8"?>
<!-- Generator: Adobe Illustrator 15.0.0, SVG Export Plug-In . SVG Version: 6.00 Build 0)  -->
<!DOCTYPE svg PUBLIC "-//W3C//DTD SVG 1.1//EN" "http://www.w3.org/Graphics/SVG/1.1/DTD/svg11.dtd">
<svg version="1.1" id="圖層_1" xmlns="http://www.w3.org/2000/svg" xmlns:xlink="http://www.w3.org/1999/xlink" x="0px" y="0px"
	 width="600px" height="600px" viewBox="0 0 600 600" enable-background="new 0 0 600 600" xml:space="preserve">
<radialGradient id="SVGID_1_" cx="1042.0879" cy="3095.125" r="144.7734" gradientTransform="matrix(1.8859 0 0 1.8859 -1663.0748 -5537.0942)" gradientUnits="userSpaceOnUse">
	<stop  offset="0" style="stop-color:#9FA0A0"/>
	<stop  offset="0.0346" style="stop-color:#908F8F"/>
	<stop  offset="0.1172" style="stop-color:#706C6B"/>
	<stop  offset="0.2075" style="stop-color:#564E4C"/>
	<stop  offset="0.3059" style="stop-color:#403533"/>
	<stop  offset="0.4153" style="stop-color:#2F2220"/>
	<stop  offset="0.542" style="stop-color:#231512"/>
	<stop  offset="0.7016" style="stop-color:#1C0D0A"/>
	<stop  offset="1" style="stop-color:#1A0B08"/>
</radialGradient>
<path fill="url(#SVGID_1_)" stroke="#231815" stroke-width="2" stroke-miterlimit="10" d="M440.42,550.309
	c46.086-76.361,151.244-144.852,109.23-324.914c0,0-59.068-223.144-280.112-213.085c0,0-261.215,6.539-220.116,314.92
	c0,0,29.134,139.498,138.095,260.791"/>
<g>
	<path fill="#FDEACC" stroke="#221E1F" stroke-width="2" d="M315.947,523.586c5.178-3.297,8.861-3.873,11.447-9.189l-5.113-31.291
		c-9.42,4.225-19.599,4.469-28.055,5.623l6.149,27.469C304.365,522.732,309.707,527.564,315.947,523.586z"/>
</g>
<g>
	<path fill="#DCDDDD" stroke="#221E1F" stroke-width="2" d="M343.697,494.645c0,0,62.242,6.303,45.975,56.803
		c-5.77,17.904-140.755,23.822-152.856,10.664c-9.537-10.383-47.038-36.877,34.439-76.191c0,0,13.556,23.418,36.892,29.576
		C329.248,521.078,343.697,494.645,343.697,494.645z"/>
	<g>
		<g>
			<path fill="#C9CACA" stroke="#231815" stroke-width="2" d="M308.176,526.152c19.604,4.523,37.221-13.668,47.436-26.492
				c-7.578-2.473-13.043-3-13.043-3s-13.688,24.998-34.332,19.777c-22.768-5.744-36.052-27.709-36.052-27.709
				c-4.093,1.93-7.8,3.832-11.304,5.707C268.315,503.441,284.907,520.793,308.176,526.152z"/>
		</g>
		
			<radialGradient id="SVGID_2_" cx="735.7285" cy="3054.8311" r="2.2128" gradientTransform="matrix(2.0021 -0.1688 0.1688 2.0021 -1714.6958 -5490.5391)" gradientUnits="userSpaceOnUse">
			<stop  offset="0" style="stop-color:#9FA0A0"/>
			<stop  offset="0.0346" style="stop-color:#908F8F"/>
			<stop  offset="0.1172" style="stop-color:#706C6B"/>
			<stop  offset="0.2075" style="stop-color:#564E4C"/>
			<stop  offset="0.3059" style="stop-color:#403533"/>
			<stop  offset="0.4153" style="stop-color:#2F2220"/>
			<stop  offset="0.542" style="stop-color:#231512"/>
			<stop  offset="0.7016" style="stop-color:#1C0D0A"/>
			<stop  offset="1" style="stop-color:#1A0B08"/>
		</radialGradient>
		<path fill="url(#SVGID_2_)" stroke="#231815" stroke-miterlimit="10" d="M268.861,505.025c0,0,11.018-6.375,10.161-7.354"/>
		
			<radialGradient id="SVGID_3_" cx="739.5469" cy="3058.584" r="2.1318" gradientTransform="matrix(2.0021 -0.1688 0.1688 2.0021 -1714.6958 -5490.5391)" gradientUnits="userSpaceOnUse">
			<stop  offset="0" style="stop-color:#9FA0A0"/>
			<stop  offset="0.0346" style="stop-color:#908F8F"/>
			<stop  offset="0.1172" style="stop-color:#706C6B"/>
			<stop  offset="0.2075" style="stop-color:#564E4C"/>
			<stop  offset="0.3059" style="stop-color:#403533"/>
			<stop  offset="0.4153" style="stop-color:#2F2220"/>
			<stop  offset="0.542" style="stop-color:#231512"/>
			<stop  offset="0.7016" style="stop-color:#1C0D0A"/>
			<stop  offset="1" style="stop-color:#1A0B08"/>
		</radialGradient>
		<path fill="url(#SVGID_3_)" stroke="#231815" stroke-miterlimit="10" d="M277.225,511.617c0,0,10.763-5.912,9.994-6.803"/>
		
			<radialGradient id="SVGID_4_" cx="742.3398" cy="3061.5508" r="2.068" gradientTransform="matrix(2.0021 -0.1688 0.1688 2.0021 -1714.6958 -5490.5391)" gradientUnits="userSpaceOnUse">
			<stop  offset="0" style="stop-color:#9FA0A0"/>
			<stop  offset="0.0346" style="stop-color:#908F8F"/>
			<stop  offset="0.1172" style="stop-color:#706C6B"/>
			<stop  offset="0.2075" style="stop-color:#564E4C"/>
			<stop  offset="0.3059" style="stop-color:#403533"/>
			<stop  offset="0.4153" style="stop-color:#2F2220"/>
			<stop  offset="0.542" style="stop-color:#231512"/>
			<stop  offset="0.7016" style="stop-color:#1C0D0A"/>
			<stop  offset="1" style="stop-color:#1A0B08"/>
		</radialGradient>
		<path fill="url(#SVGID_4_)" stroke="#231815" stroke-miterlimit="10" d="M283.403,516.881c0,0,10.544-5.557,9.833-6.393"/>
		
			<radialGradient id="SVGID_5_" cx="745.166" cy="3063.668" r="2.0287" gradientTransform="matrix(2.0021 -0.1688 0.1688 2.0021 -1714.6958 -5490.5391)" gradientUnits="userSpaceOnUse">
			<stop  offset="0" style="stop-color:#9FA0A0"/>
			<stop  offset="0.0346" style="stop-color:#908F8F"/>
			<stop  offset="0.1172" style="stop-color:#706C6B"/>
			<stop  offset="0.2075" style="stop-color:#564E4C"/>
			<stop  offset="0.3059" style="stop-color:#403533"/>
			<stop  offset="0.4153" style="stop-color:#2F2220"/>
			<stop  offset="0.542" style="stop-color:#231512"/>
			<stop  offset="0.7016" style="stop-color:#1C0D0A"/>
			<stop  offset="1" style="stop-color:#1A0B08"/>
		</radialGradient>
		<path fill="url(#SVGID_5_)" stroke="#231815" stroke-miterlimit="10" d="M289.456,520.498c0,0,10.416-5.313,9.758-6.102"/>
		
			<radialGradient id="SVGID_6_" cx="749.1855" cy="3065.9404" r="1.9331" gradientTransform="matrix(2.0021 -0.1688 0.1688 2.0021 -1714.6958 -5490.5391)" gradientUnits="userSpaceOnUse">
			<stop  offset="0" style="stop-color:#9FA0A0"/>
			<stop  offset="0.0346" style="stop-color:#908F8F"/>
			<stop  offset="0.1172" style="stop-color:#706C6B"/>
			<stop  offset="0.2075" style="stop-color:#564E4C"/>
			<stop  offset="0.3059" style="stop-color:#403533"/>
			<stop  offset="0.4153" style="stop-color:#2F2220"/>
			<stop  offset="0.542" style="stop-color:#231512"/>
			<stop  offset="0.7016" style="stop-color:#1C0D0A"/>
			<stop  offset="1" style="stop-color:#1A0B08"/>
		</radialGradient>
		<path fill="url(#SVGID_6_)" stroke="#231815" stroke-miterlimit="10" d="M298.628,524.912c0,0,8.89-6.434,8.28-7.188"/>
		
			<radialGradient id="SVGID_7_" cx="753.9844" cy="3066.9043" r="1.5909" gradientTransform="matrix(2.0021 -0.1688 0.1688 2.0021 -1714.6958 -5490.5391)" gradientUnits="userSpaceOnUse">
			<stop  offset="0" style="stop-color:#9FA0A0"/>
			<stop  offset="0.0346" style="stop-color:#908F8F"/>
			<stop  offset="0.1172" style="stop-color:#706C6B"/>
			<stop  offset="0.2075" style="stop-color:#564E4C"/>
			<stop  offset="0.3059" style="stop-color:#403533"/>
			<stop  offset="0.4153" style="stop-color:#2F2220"/>
			<stop  offset="0.542" style="stop-color:#231512"/>
			<stop  offset="0.7016" style="stop-color:#1C0D0A"/>
			<stop  offset="1" style="stop-color:#1A0B08"/>
		</radialGradient>
		<path fill="url(#SVGID_7_)" stroke="#231815" stroke-miterlimit="10" d="M310.932,526.656c0,0,3.756-7.691,3.197-8.434"/>
		
			<radialGradient id="SVGID_8_" cx="766.8398" cy="3062.7383" r="1.6688" gradientTransform="matrix(2.0021 -0.1688 0.1688 2.0021 -1714.6958 -5490.5391)" gradientUnits="userSpaceOnUse">
			<stop  offset="0" style="stop-color:#9FA0A0"/>
			<stop  offset="0.0346" style="stop-color:#908F8F"/>
			<stop  offset="0.1172" style="stop-color:#706C6B"/>
			<stop  offset="0.2075" style="stop-color:#564E4C"/>
			<stop  offset="0.3059" style="stop-color:#403533"/>
			<stop  offset="0.4153" style="stop-color:#2F2220"/>
			<stop  offset="0.542" style="stop-color:#231512"/>
			<stop  offset="0.7016" style="stop-color:#1C0D0A"/>
			<stop  offset="1" style="stop-color:#1A0B08"/>
		</radialGradient>
		<path fill="url(#SVGID_8_)" stroke="#231815" stroke-miterlimit="10" d="M340.955,515.262c0,0-6.258-5.844-6.74-6.672"/>
		
			<radialGradient id="SVGID_9_" cx="764.4941" cy="3064.4512" r="1.6388" gradientTransform="matrix(2.0021 -0.1688 0.1688 2.0021 -1714.6958 -5490.5391)" gradientUnits="userSpaceOnUse">
			<stop  offset="0" style="stop-color:#9FA0A0"/>
			<stop  offset="0.0346" style="stop-color:#908F8F"/>
			<stop  offset="0.1172" style="stop-color:#706C6B"/>
			<stop  offset="0.2075" style="stop-color:#564E4C"/>
			<stop  offset="0.3059" style="stop-color:#403533"/>
			<stop  offset="0.4153" style="stop-color:#2F2220"/>
			<stop  offset="0.542" style="stop-color:#231512"/>
			<stop  offset="0.7016" style="stop-color:#1C0D0A"/>
			<stop  offset="1" style="stop-color:#1A0B08"/>
		</radialGradient>
		<path fill="url(#SVGID_9_)" stroke="#231815" stroke-miterlimit="10" d="M336.578,518.932c0,0-6.309-5.578-6.805-6.363"/>
		
			<radialGradient id="SVGID_10_" cx="761.2998" cy="3065.54" r="1.6405" gradientTransform="matrix(2.0021 -0.1688 0.1688 2.0021 -1714.6958 -5490.5391)" gradientUnits="userSpaceOnUse">
			<stop  offset="0" style="stop-color:#9FA0A0"/>
			<stop  offset="0.0346" style="stop-color:#908F8F"/>
			<stop  offset="0.1172" style="stop-color:#706C6B"/>
			<stop  offset="0.2075" style="stop-color:#564E4C"/>
			<stop  offset="0.3059" style="stop-color:#403533"/>
			<stop  offset="0.4153" style="stop-color:#2F2220"/>
			<stop  offset="0.542" style="stop-color:#231512"/>
			<stop  offset="0.7016" style="stop-color:#1C0D0A"/>
			<stop  offset="1" style="stop-color:#1A0B08"/>
		</radialGradient>
		<path fill="url(#SVGID_10_)" stroke="#231815" stroke-miterlimit="10" d="M330.463,521.551c0,0-6.469-5.396-6.996-6.16"/>
		
			<radialGradient id="SVGID_11_" cx="757.8115" cy="3066.7676" r="1.3488" gradientTransform="matrix(2.0021 -0.1688 0.1688 2.0021 -1714.6958 -5490.5391)" gradientUnits="userSpaceOnUse">
			<stop  offset="0" style="stop-color:#9FA0A0"/>
			<stop  offset="0.0346" style="stop-color:#908F8F"/>
			<stop  offset="0.1172" style="stop-color:#706C6B"/>
			<stop  offset="0.2075" style="stop-color:#564E4C"/>
			<stop  offset="0.3059" style="stop-color:#403533"/>
			<stop  offset="0.4153" style="stop-color:#2F2220"/>
			<stop  offset="0.542" style="stop-color:#231512"/>
			<stop  offset="0.7016" style="stop-color:#1C0D0A"/>
			<stop  offset="1" style="stop-color:#1A0B08"/>
		</radialGradient>
		<path fill="url(#SVGID_11_)" stroke="#231815" stroke-miterlimit="10" d="M321.354,525.168c0,0-1.791-6.561-2.332-7.301"/>
		
			<radialGradient id="SVGID_12_" cx="769.3418" cy="3059.9219" r="1.9283" gradientTransform="matrix(2.0021 -0.1688 0.1688 2.0021 -1714.6958 -5490.5391)" gradientUnits="userSpaceOnUse">
			<stop  offset="0" style="stop-color:#9FA0A0"/>
			<stop  offset="0.0346" style="stop-color:#908F8F"/>
			<stop  offset="0.1172" style="stop-color:#706C6B"/>
			<stop  offset="0.2075" style="stop-color:#564E4C"/>
			<stop  offset="0.3059" style="stop-color:#403533"/>
			<stop  offset="0.4153" style="stop-color:#2F2220"/>
			<stop  offset="0.542" style="stop-color:#231512"/>
			<stop  offset="0.7016" style="stop-color:#1C0D0A"/>
			<stop  offset="1" style="stop-color:#1A0B08"/>
		</radialGradient>
		<path fill="url(#SVGID_12_)" stroke="#231815" stroke-miterlimit="10" d="M337.467,502.969c0,0,9.695,6.541,9.285,5.725"/>
	</g>
	<path fill="#C9CACA" stroke="#231815" stroke-width="2" d="M255.099,521.32c0,0-19.519,18.521,9.636,46.568"/>
	<path fill="#C9CACA" stroke="#231815" stroke-width="2" d="M355.777,522.438c-6.361-1.598,25.697,3.686,14.832,38.801"/>
</g>
<path fill="#FDEACC" stroke="#231815" stroke-width="2" stroke-miterlimit="10" d="M474.674,282.533
	c1.127,6.691,2.07,13.629,2.758,20.858c0,0-0.148,30.955-9.08,71.348c22.938-4.24,40.268-23.621,40.268-46.896
	C508.619,306.756,494.396,288.87,474.674,282.533z"/>
<path fill="#FDEACC" stroke="#231815" stroke-width="2" stroke-miterlimit="10" d="M500.568,267.56
	c0,0-1.129,224.76-198.555,233.088c0,0-155.146-45.787-165.744-126.951c0,0-49.519-24.971-49.975-56.193
	c-0.452-31.21,26.402-56.19,57.485-24.971c31.091,31.217,5.738-191.461,192.959-197.709
	C336.738,94.824,484.213,111.471,500.568,267.56z"/>
<radialGradient id="SVGID_13_" cx="1049.8438" cy="3054.1963" r="88.2641" gradientTransform="matrix(1.8859 0 0 1.8859 -1663.0748 -5537.0942)" gradientUnits="userSpaceOnUse">
	<stop  offset="0" style="stop-color:#9FA0A0"/>
	<stop  offset="0.0346" style="stop-color:#908F8F"/>
	<stop  offset="0.1172" style="stop-color:#706C6B"/>
	<stop  offset="0.2075" style="stop-color:#564E4C"/>
	<stop  offset="0.3059" style="stop-color:#403533"/>
	<stop  offset="0.4153" style="stop-color:#2F2220"/>
	<stop  offset="0.542" style="stop-color:#231512"/>
	<stop  offset="0.7016" style="stop-color:#1C0D0A"/>
	<stop  offset="1" style="stop-color:#1A0B08"/>
</radialGradient>
<path fill="url(#SVGID_13_)" stroke="#231815" stroke-width="2" stroke-miterlimit="10" d="M481.871,370.016
	c0,0,33.811-89.862-36.865-119.605c-70.688-29.745-138.158-28.09-168.087-56.854c0,0,24.584,26.055,70.272,54.336
	c0,0-110.912-27.594-129.35-77.936c0,0-70.369,126.923-64.354,161.248c0,0-95.137-217.502,125.81-252.727
	C279.297,78.479,576.688,26.018,481.871,370.016z"/>
<ellipse fill-rule="evenodd" clip-rule="evenodd" fill="#FFFFFF" cx="277.058" cy="319.738" rx="20.665" ry="19.191"/>
<ellipse fill-rule="evenodd" clip-rule="evenodd" fill="#FFFFFF" cx="369.311" cy="314.018" rx="17.529" ry="16.281"/>
<g>
	<path fill-rule="evenodd" clip-rule="evenodd" d="M337.625,293.097c11.998-3.992,28.996-9.837,42.764-3.059
		c-11.967,5.341-31.119,3.506-42.764,9.165c-19.842,36.762,41.932,52.512,33.602,6.118c4.08,0,8.143,0,12.225,0
		c6.623-0.516,1.383,10.836,3.055,15.277c14.623-6.42,0.477-23.461,0-33.614c1.77-6.379,11.537,4.409,18.328,3.054
		C408.258,257.366,331.508,260.723,337.625,293.097z"/>
	<path fill-rule="evenodd" clip-rule="evenodd" d="M279.362,387.611c-4.863,5.539-15.124,5.688-17.35,13.877
		c24.771,1.877,47.656,28.221,81.543,20.82c-0.814-7.451-11.258-5.768-15.613-6.941c-15.609-4.213-33.674-10.32-48.58-17.352
		C279.901,393.959,282.759,390.848,279.362,387.611z"/>
	<path fill-rule="evenodd" clip-rule="evenodd" d="M294.976,432.715c1.923,14.191,27.684,11.262,38.172,6.939
		c-7.359-5.063-26.611-0.244-34.7-8.676C296.428,430.697,295.36,431.365,294.976,432.715z"/>
	<path fill-rule="evenodd" clip-rule="evenodd" d="M218.443,280.872c3.168,12.082,19.888,1.83,27.509,0
		c4.531,1.333-1.209,3.912,0,9.168c13.935-5.655,29.48-3.414,39.717-6.113c-0.264,4.339-0.508,8.653,3.054,9.17
		c-17.731,2.184-70.574,2.04-51.944,39.724c7.152-0.992,2.967-13.328,9.173-15.275c4.37,3.766,5.784,10.504,6.102,18.33
		c7.177,0.973,11.479,4.828,21.398,3.055c1.936-11.305,8.284-18.188,6.102-33.607c16.102-3.875,16.512,7.928,15.281,21.387
		c10.729-2.066-3.727-19.99,12.225-21.389c-6.254-10.04-10.684-21.912-24.445-24.447c9.035-11.308,21.226,11.018,30.556,0
		C304.035,245.952,232.062,259.041,218.443,280.872z"/>
</g>
<g>
	<path d="M275.421,536.545c0.07-0.043,0.267-0.076,0.58-0.098c0.241-0.008,0.42,0.031,0.534,0.125c0.313,0.191,0.51,0.4,0.583,0.633
		c0.114,0.188,0.156,0.354,0.131,0.5s-0.129,0.23-0.304,0.252c-0.097,0.01-0.267-0.1-0.521-0.328
		c-0.262-0.232-0.51-0.318-0.75-0.252c-0.821,0.146-1.646,0.596-2.484,1.35c-0.38,0.336-0.729,0.77-1.054,1.305
		c-0.295,0.398-0.477,0.719-0.549,0.959c-0.127,0.348-0.224,0.74-0.284,1.176c-0.062,0.443-0.078,0.781-0.049,1.023
		c0.119,0.709,0.5,1.441,1.15,2.186c0.26,0.355,0.549,0.598,0.862,0.736c0.369,0.178,1.022,0.197,1.962,0.063
		c0.42-0.084,0.763-0.189,1.024-0.316c0.26-0.123,0.658-0.385,1.192-0.781c0.493-0.314,0.777-0.578,0.85-0.787
		c0.083-0.461,0.126-0.826,0.126-1.086c0.009-0.178-0.024-0.281-0.094-0.314c-0.076-0.029-0.324-0.051-0.756-0.061
		c-0.621,0.043-1.235,0.047-1.862,0.016c-0.622-0.033-1.025-0.078-1.2-0.143c-0.125-0.082-0.197-0.275-0.206-0.58
		c0.009-0.178,0.072-0.285,0.188-0.322c0.114-0.037,0.436-0.02,0.958,0.055c0.452,0.041,1.139,0.066,2.059,0.08
		c1.164-0.086,1.877-0.061,2.139,0.076c0.112,0.053,0.179,0.152,0.204,0.299c0.011,0.199-0.123,0.426-0.394,0.674l-0.269,0.363
		c-0.116,0.303-0.23,1.4-0.344,3.281c-0.02,0.348-0.047,0.535-0.081,0.566c-0.009,0.053-0.049,0.111-0.121,0.174
		c-0.078,0.064-0.156,0.1-0.239,0.109c-0.063,0-0.101-0.021-0.116-0.07c-0.017-0.047-0.029-0.238-0.039-0.572
		c0.009-0.861,0.002-1.289-0.018-1.289c-0.072,0-0.273,0.127-0.596,0.375c-0.733,0.475-1.225,0.758-1.479,0.867
		c-0.238,0.113-0.668,0.209-1.288,0.271c-0.616,0.07-1.085,0.086-1.401,0.041c-0.395-0.074-0.831-0.316-1.308-0.736
		c-0.477-0.42-0.846-0.881-1.11-1.381c-0.188-0.381-0.324-0.844-0.406-1.4c-0.138-1.258,0.015-2.326,0.454-3.205
		c0.23-0.438,0.539-0.91,0.921-1.424c0.383-0.504,0.714-0.879,0.998-1.123C273.918,537.119,274.717,536.689,275.421,536.545z"/>
	<path d="M284.014,539.699c0.512-0.063,0.944-0.008,1.289,0.156c0.595,0.18,1.105,0.594,1.523,1.244
		c0.596,0.9,0.817,1.953,0.66,3.156c-0.104,0.891-0.364,1.572-0.77,2.045c-0.243,0.303-0.517,0.496-0.834,0.58
		c-0.312,0.084-0.781,0.104-1.401,0.061c-1.128-0.094-1.917-0.309-2.37-0.641c-0.179-0.15-0.392-0.365-0.645-0.658
		c-0.248-0.283-0.413-0.512-0.485-0.68c-0.044-0.063-0.129-0.268-0.268-0.609c-0.097-0.389-0.104-0.842-0.031-1.359
		c0.073-0.523,0.228-0.947,0.454-1.285c0.337-0.51,0.663-0.893,0.976-1.145C282.616,540.199,283.249,539.91,284.014,539.699z
		 M285.146,540.816c-0.107-0.049-0.302-0.084-0.59-0.104c-0.287-0.012-0.52,0.006-0.699,0.059c-0.639,0.168-1.145,0.541-1.508,1.131
		c-0.158,0.229-0.248,0.344-0.265,0.344c-0.043,0-0.126,0.086-0.245,0.25c-0.119,0.168-0.221,0.324-0.306,0.457
		c-0.146,0.334-0.175,0.639-0.081,0.91c0.114,0.369,0.32,0.732,0.62,1.1c0.298,0.367,0.593,0.607,0.891,0.725
		c0.272,0.115,0.666,0.207,1.177,0.275c0.513,0.064,0.917,0.076,1.212,0.021c0.383-0.082,0.669-0.258,0.862-0.533
		c0.41-0.469,0.612-1.111,0.612-1.916c0-0.514-0.109-0.943-0.328-1.289c-0.159-0.293-0.374-0.582-0.649-0.873
		C285.58,541.088,285.345,540.902,285.146,540.816z"/>
	<path d="M291.883,539.467c0.208-0.072,0.457-0.059,0.738,0.049c0.287,0.092,0.553,0.252,0.811,0.482
		c0.255,0.232,0.423,0.473,0.493,0.725c0.139,0.389,0.257,0.756,0.364,1.1c0.136,0.68,0.246,1.656,0.331,2.924
		c0.083,1.266,0.083,1.955,0,2.07c-0.076,0.107-0.224,0.139-0.438,0.098c-0.119-0.025-0.194-0.092-0.226-0.207
		c-0.031-0.113-0.067-0.439-0.108-0.973c-0.093-1.656-0.25-2.875-0.472-3.658c-0.105-0.422-0.282-0.807-0.524-1.156
		c-0.246-0.354-0.47-0.531-0.671-0.531c-0.313,0-0.881,0.424-1.694,1.262c-0.389,0.418-0.602,0.852-0.646,1.303
		c-0.085,0.396-0.085,1.314,0,2.746c0,0.746-0.009,1.135-0.029,1.168c-0.022,0.039-0.09,0.074-0.199,0.107
		c-0.109,0.031-0.206,0.041-0.289,0.031c-0.054,0-0.137-0.064-0.253-0.189c-0.135-0.121-0.224-0.279-0.26-0.463
		c-0.036-0.186-0.063-0.771-0.087-1.766c0-0.379-0.002-0.896-0.011-1.559c-0.013-0.656-0.018-1.061-0.018-1.207
		c-0.02-0.691-0.009-1.174,0.041-1.445c0.047-0.271,0.159-0.482,0.335-0.629c0.116-0.074,0.185-0.111,0.214-0.111
		c0.027,0,0.07,0.037,0.133,0.111c0.051,0.061,0.095,0.293,0.125,0.689c0,0.496,0.036,0.738,0.112,0.738
		c0.041,0,0.101-0.031,0.186-0.092c0.127-0.033,0.289-0.15,0.488-0.361C291.072,539.998,291.595,539.582,291.883,539.467z"/>
	<path d="M299.487,539.809c0.493-0.092,0.889-0.066,1.195,0.082c0.228,0.1,0.59,0.34,1.083,0.707l0.332,0.266v2.293
		c-0.031,2.994-0.09,4.727-0.174,5.186c-0.146,0.658-0.494,1.131-1.036,1.412c-0.412,0.203-1.083,0.262-2.012,0.189
		c-0.472-0.072-0.996-0.213-1.573-0.422c-0.345-0.145-0.585-0.273-0.729-0.371c-0.143-0.098-0.34-0.27-0.604-0.51
		c-0.452-0.494-0.634-0.896-0.551-1.209c0.138-0.264,0.309-0.225,0.519,0.109c0.26,0.42,0.777,0.811,1.54,1.18
		c0.26,0.146,0.502,0.262,0.726,0.344l0.342,0.127l0.724-0.051c0.584,0,1.056-0.104,1.413-0.314
		c0.166-0.092,0.291-0.229,0.376-0.406c0.084-0.178,0.145-0.455,0.189-0.834c0.02-0.324,0.018-0.746-0.018-1.262
		c-0.029-0.52-0.067-0.811-0.109-0.873c-0.041,0-0.169,0.039-0.393,0.123c-0.803,0.357-1.613,0.521-2.418,0.49
		c-0.723-0.043-1.241-0.246-1.553-0.613c-0.253-0.283-0.445-0.668-0.579-1.154c-0.126-0.488-0.15-0.885-0.07-1.186
		c0.096-0.377,0.322-0.807,0.68-1.289c0.303-0.441,0.706-0.848,1.216-1.225C298.512,540.219,299.006,539.959,299.487,539.809z
		 M300.525,540.707c-0.228-0.146-0.566-0.146-1.004,0c-0.6,0.209-1.162,0.553-1.699,1.035c-0.398,0.42-0.656,0.787-0.777,1.109
		c-0.122,0.318-0.158,0.646-0.103,0.98c0.042,0.307,0.148,0.584,0.313,0.832c0.167,0.252,0.347,0.406,0.535,0.457h1.005h0.85
		l0.313-0.109c0.609-0.273,1.012-0.641,1.211-1.102c0.049-0.104,0.078-0.328,0.078-0.676c0-0.533-0.068-0.902-0.201-1.113
		c-0.056-0.209-0.083-0.4-0.083-0.564c-0.02-0.305-0.073-0.494-0.157-0.566c-0.03-0.02-0.08-0.066-0.149-0.135
		C300.59,540.787,300.546,540.736,300.525,540.707z"/>
	<path d="M311.805,536.652c0.115-0.041,0.262-0.031,0.439,0.033c0.137,0.137,0.221,0.324,0.25,0.564
		c0.041,0.408,0.076,2.17,0.098,5.287c0.02,3.117,0.016,4.742-0.018,4.877c-0.021,0.127-0.109,0.188-0.268,0.188
		c-0.154,0-0.234-0.061-0.234-0.188c-0.02-0.178-0.031-0.375-0.031-0.598c-0.043-0.428-0.063-1.162-0.063-2.197
		c-0.094-3.465-0.164-5.473-0.205-6.018c-0.031-0.137-0.063-0.246-0.092-0.33c-0.035-0.031-0.064-0.037-0.096-0.025
		c-0.031,0.018-0.111,0.086-0.236,0.211c-0.459,0.557-0.859,1.127-1.193,1.715c-0.398,0.725-0.973,1.932-1.729,3.629
		c-0.209,0.502-0.383,0.846-0.518,1.031c-0.141,0.18-0.291,0.275-0.457,0.275c-0.264,0-0.463-0.115-0.605-0.34
		c-0.141-0.227-0.287-0.643-0.43-1.25c-0.031-0.146-0.066-0.311-0.104-0.492c-0.037-0.186-0.104-0.535-0.195-1.053
		c-0.096-0.521-0.205-1.119-0.332-1.801c-0.207-1.289-0.355-1.938-0.438-1.947c-0.02-0.01-0.049,0.004-0.08,0.047
		c-0.049,0.105-0.148,0.449-0.289,1.037c-0.144,0.586-0.229,1.029-0.26,1.334c-0.083,0.527-0.144,1.555-0.172,3.088
		c-0.035,1.535-0.021,2.547,0.028,3.041c0.034,0.313-0.034,0.502-0.204,0.564c-0.248,0.133-0.41,0.096-0.486-0.125
		c-0.135-0.275-0.126-1.734,0.031-4.383c0.103-1.98,0.357-3.66,0.754-5.043c0.128-0.451,0.221-0.721,0.293-0.813
		c0.066-0.086,0.195-0.131,0.385-0.131c0.177,0,0.301,0.041,0.376,0.127c0.085,0.064,0.167,0.156,0.253,0.281
		c0,0,0.014,0.102,0.045,0.283c0.031,0.178,0.074,0.42,0.127,0.723c0.051,0.305,0.109,0.59,0.172,0.863
		c0.566,3.143,0.934,4.797,1.1,4.965c0.051,0.055,0.121-0.021,0.205-0.221c0.051-0.104,0.127-0.271,0.219-0.502
		c0.391-1.141,1.139-2.582,2.246-4.322c0.387-0.604,0.631-1.002,0.723-1.184c0.096-0.184,0.141-0.338,0.141-0.465
		c0-0.238,0.076-0.408,0.221-0.5C311.322,536.764,311.533,536.686,311.805,536.652z"/>
	<path d="M313.861,537.58c0.189-0.098,0.498,0.025,0.928,0.359c0.434,0.336,0.633,0.621,0.598,0.85c0,0.127-0.084,0.193-0.252,0.199
		c-0.166,0.004-0.355-0.047-0.564-0.15c-0.273-0.168-0.49-0.338-0.652-0.512c-0.164-0.172-0.246-0.313-0.246-0.414
		C313.672,537.777,313.738,537.664,313.861,537.58z M314.191,539.777c0.053-0.061,0.117-0.094,0.189-0.094
		c0.115,0,0.264,0.166,0.455,0.488c0.053,0.334,0.078,0.906,0.078,1.711c0.012,0.963,0.004,1.975-0.025,3.033
		c-0.023,1.057-0.057,1.65-0.1,1.779c-0.063,0.193-0.201,0.279-0.408,0.246l-0.232-0.061l-0.033-2.09
		c0-0.42-0.008-1.029-0.025-1.832c-0.012-0.799-0.023-1.283-0.023-1.451c-0.041-0.691-0.059-1.131-0.043-1.316
		C314.029,539.998,314.09,539.861,314.191,539.777z"/>
	<path d="M320.084,539.467c0.209-0.072,0.455-0.059,0.742,0.049c0.279,0.092,0.551,0.252,0.805,0.482
		c0.258,0.232,0.42,0.473,0.496,0.725c0.135,0.389,0.258,0.756,0.361,1.1c0.137,0.68,0.246,1.656,0.328,2.924
		c0.086,1.266,0.086,1.955,0,2.07c-0.07,0.107-0.219,0.139-0.438,0.098c-0.117-0.025-0.189-0.092-0.221-0.207
		c-0.031-0.113-0.068-0.439-0.111-0.973c-0.092-1.656-0.252-2.875-0.473-3.658c-0.104-0.422-0.277-0.807-0.521-1.156
		c-0.25-0.354-0.473-0.531-0.672-0.531c-0.314,0-0.877,0.424-1.695,1.262c-0.391,0.418-0.602,0.852-0.643,1.303
		c-0.086,0.396-0.086,1.314,0,2.746c0,0.746-0.016,1.135-0.035,1.168c-0.02,0.039-0.084,0.074-0.193,0.107
		c-0.111,0.031-0.209,0.041-0.291,0.031c-0.051,0-0.137-0.064-0.25-0.189c-0.139-0.121-0.223-0.279-0.26-0.463
		c-0.037-0.186-0.066-0.771-0.088-1.766c0-0.379-0.006-0.896-0.014-1.559c-0.01-0.656-0.018-1.061-0.018-1.207
		c-0.023-0.691-0.008-1.174,0.041-1.445c0.045-0.271,0.158-0.482,0.338-0.629c0.113-0.074,0.184-0.111,0.209-0.111
		c0.029,0,0.07,0.037,0.137,0.111c0.051,0.061,0.092,0.293,0.125,0.689c0,0.496,0.035,0.738,0.109,0.738
		c0.041,0,0.104-0.031,0.189-0.092c0.127-0.033,0.287-0.15,0.484-0.361C319.273,539.998,319.791,539.582,320.084,539.467z"/>
	<path d="M328.664,536.371c0.092-0.023,0.24-0.033,0.438-0.033c0.16-0.021,0.486,0.018,0.982,0.109
		c0.494,0.098,0.814,0.182,0.949,0.254c0.316,0.137,0.547,0.438,0.691,0.91c0.148,0.473,0.129,0.813-0.061,1.02
		c-0.379,0.178-0.578,0.258-0.6,0.238c-0.02-0.158-0.031-0.336-0.031-0.537c-0.041-0.396-0.111-0.65-0.213-0.768
		c-0.098-0.117-0.336-0.215-0.713-0.301c-0.723-0.186-1.396-0.211-2.01-0.076c-0.398,0.105-0.76,0.285-1.096,0.541
		c-0.328,0.256-0.527,0.506-0.602,0.748c-0.012,0.031,0,0.148,0.031,0.361c0.127,0.387,0.318,0.77,0.578,1.145
		c0.482,0.629,1.43,1.441,2.846,2.438c1.078,0.752,1.799,1.467,2.154,2.133c0.154,0.328,0.213,0.652,0.17,0.977
		c-0.029,0.65-0.207,1.133-0.533,1.455c-0.322,0.316-0.873,0.557-1.648,0.713c-0.861,0.146-1.619,0.115-2.277-0.096
		c-0.369-0.109-0.758-0.291-1.17-0.525c-0.416-0.236-0.734-0.467-0.953-0.697c-0.369-0.338-0.674-0.785-0.924-1.346
		c-0.252-0.557-0.42-1.146-0.506-1.764c-0.072-0.473,0.006-0.838,0.236-1.104c0.127-0.166,0.26-0.184,0.41-0.045
		c0.115,0.061,0.131,0.15,0.045,0.266c-0.125,0.188-0.107,0.629,0.059,1.318c0.158,0.693,0.377,1.232,0.648,1.621
		c0.441,0.639,1.033,1.137,1.775,1.49c0.439,0.189,0.83,0.307,1.178,0.346c0.348,0.045,0.732,0.023,1.162-0.063
		c0.869-0.229,1.439-0.637,1.699-1.225c0.133-0.262,0.15-0.52,0.049-0.768c-0.139-0.346-0.365-0.68-0.678-0.992
		c-0.314-0.314-0.787-0.688-1.416-1.113c-1.055-0.768-1.826-1.375-2.297-1.832c-0.479-0.457-0.826-0.904-1.047-1.342
		c-0.191-0.398-0.285-0.795-0.285-1.197c0-0.289,0.037-0.496,0.109-0.609c0.086-0.18,0.277-0.393,0.584-0.645
		c0.303-0.252,0.625-0.457,0.977-0.613C327.793,536.563,328.221,536.43,328.664,536.371z"/>
	<path d="M334.711,536.277c0.17-0.107,0.303-0.094,0.408,0.029c0.051,0.031,0.07,0.328,0.047,0.881c0,0.963-0.1,1.785-0.299,2.467
		c-0.053,0.207-0.08,0.512-0.08,0.91v0.738l0.049,0.158l0.252-0.33c0.385-0.648,0.869-1.131,1.447-1.447
		c0.229-0.068,0.441-0.107,0.641-0.107s0.342,0.023,0.422,0.078c0.199,0.072,0.465,0.367,0.789,0.881
		c0.545,0.984,0.891,2.473,1.037,4.459c0.07,1.174,0.006,1.816-0.205,1.932c-0.135,0.055-0.256,0.055-0.363,0
		c-0.061-0.039-0.111-0.174-0.145-0.4c-0.041-0.225-0.096-0.795-0.168-1.717c-0.115-1.719-0.408-2.996-0.879-3.834
		c-0.096-0.146-0.209-0.291-0.348-0.434c-0.137-0.141-0.221-0.213-0.264-0.213c-0.076,0-0.26,0.119-0.559,0.355
		s-0.545,0.459-0.729,0.666c-0.191,0.211-0.404,0.65-0.646,1.32l-0.158,0.52v1.887l-0.094,1.695l-0.127,0.078
		c-0.205,0.146-0.381,0.184-0.514,0.109c-0.086-0.053-0.129-0.115-0.129-0.188c-0.055-0.199-0.096-1.064-0.125-2.594
		c-0.031-1.527-0.041-2.889-0.014-4.082c0-1.074,0.033-1.77,0.109-2.092c0.072-0.398,0.176-0.773,0.313-1.133
		C334.518,536.516,334.627,536.316,334.711,536.277z"/>
	<path d="M343.902,539.828c0.104-0.055,0.365-0.08,0.785-0.08c0.49,0,0.832,0.041,1.027,0.119c0.191,0.076,0.506,0.283,0.936,0.619
		c0.42,0.326,0.709,0.586,0.865,0.793c0.156,0.205,0.266,0.451,0.326,0.73c0.033,0.189,0.045,0.355,0.041,0.502
		c-0.004,0.148-0.088,0.332-0.242,0.551c-0.199,0.262-0.496,0.438-0.898,0.527c-0.393,0.088-0.869,0.141-1.43,0.164
		c-0.615,0.012-1.127,0.006-1.529-0.014c-0.404-0.023-0.922-0.098-1.549-0.223c-0.279-0.055-0.432-0.029-0.445,0.072
		c-0.018,0.102-0.031,0.227-0.049,0.375c-0.014,0.152,0.076,0.389,0.277,0.701c0.344,0.553,0.889,0.975,1.633,1.254
		c0.85,0.432,1.943,0.51,3.283,0.238c0.158-0.043,0.381-0.137,0.676-0.283c0.291-0.145,0.463-0.102,0.51,0.137
		c0.049,0.232-0.016,0.393-0.18,0.477c-0.158,0.135-0.521,0.309-1.088,0.518c-0.498,0.117-1.057,0.152-1.664,0.107
		c-0.73,0-1.355-0.107-1.867-0.326c-0.713-0.293-1.303-0.734-1.773-1.32c-0.475-0.586-0.711-1.156-0.711-1.713
		c0-0.461,0.182-1.02,0.537-1.678c0.406-0.715,0.811-1.229,1.203-1.535C342.967,540.23,343.408,539.99,343.902,539.828z
		 M345.252,540.676c-0.5-0.064-0.951-0.033-1.35,0.096c-0.346,0.143-0.707,0.432-1.086,0.861c-0.449,0.578-0.658,0.912-0.629,1.006
		c0.01,0,0.051,0.008,0.121,0.023c0.063,0.018,0.146,0.031,0.24,0.047c0.098,0.016,0.189,0.031,0.283,0.039
		c0.381,0.074,0.986,0.111,1.824,0.111c0.723,0.021,1.242,0.004,1.555-0.049c0.271-0.029,0.441-0.063,0.508-0.094
		c0.072-0.031,0.119-0.098,0.152-0.205c0.053-0.125,0.074-0.225,0.074-0.297c-0.029-0.26-0.264-0.617-0.703-1.07
		C345.906,540.863,345.576,540.707,345.252,540.676z"/>
	<path d="M352.98,539.467c0.211-0.072,0.455-0.059,0.738,0.049c0.285,0.092,0.553,0.252,0.807,0.484
		c0.258,0.23,0.426,0.471,0.5,0.723c0.135,0.389,0.256,0.752,0.359,1.1c0.135,0.68,0.248,1.656,0.33,2.924
		c0.082,1.266,0.082,1.955,0,2.072c-0.074,0.105-0.217,0.137-0.439,0.096c-0.115-0.025-0.188-0.092-0.223-0.207
		c-0.027-0.113-0.064-0.439-0.109-0.973c-0.094-1.656-0.25-2.875-0.469-3.658c-0.109-0.422-0.281-0.807-0.525-1.156
		c-0.248-0.354-0.473-0.531-0.672-0.531c-0.313,0-0.877,0.424-1.693,1.262c-0.389,0.418-0.602,0.852-0.645,1.303
		c-0.084,0.396-0.084,1.314,0,2.746c0,0.746-0.012,1.135-0.033,1.168c-0.02,0.039-0.086,0.074-0.195,0.107
		c-0.109,0.031-0.207,0.041-0.291,0.031c-0.053,0-0.137-0.064-0.252-0.188c-0.133-0.123-0.221-0.281-0.258-0.465
		c-0.039-0.186-0.063-0.771-0.084-1.766c0-0.379-0.008-0.896-0.018-1.559c-0.012-0.656-0.018-1.061-0.018-1.207
		c-0.021-0.691-0.006-1.174,0.043-1.445c0.045-0.271,0.156-0.482,0.334-0.629c0.115-0.074,0.186-0.111,0.215-0.111
		c0.023,0,0.068,0.037,0.135,0.111c0.049,0.061,0.09,0.293,0.121,0.689c0,0.496,0.037,0.738,0.109,0.738
		c0.047,0,0.107-0.031,0.191-0.092c0.125-0.033,0.287-0.15,0.486-0.361C352.172,540,352.689,539.582,352.98,539.467z"/>
</g>
</svg>
