<?xml version="1.0" encoding="utf-8"?>
<!-- Generator: Adobe Illustrator 15.0.0, SVG Export Plug-In . SVG Version: 6.00 Build 0)  -->
<!DOCTYPE svg PUBLIC "-//W3C//DTD SVG 1.1//EN" "http://www.w3.org/Graphics/SVG/1.1/DTD/svg11.dtd">
<svg version="1.1" id="圖層_1" xmlns="http://www.w3.org/2000/svg" xmlns:xlink="http://www.w3.org/1999/xlink" x="0px" y="0px"
	 width="600px" height="600px" viewBox="0 0 600 600" enable-background="new 0 0 600 600" xml:space="preserve">
<g>
	
		<radialGradient id="SVGID_1_" cx="-1639.1465" cy="1044.6514" r="40.0437" gradientTransform="matrix(1.8338 0 0 1.8338 3208.127 -1446.5538)" gradientUnits="userSpaceOnUse">
		<stop  offset="0" style="stop-color:#FFFFFF"/>
		<stop  offset="0.0612" style="stop-color:#FFFFFC"/>
		<stop  offset="0.1069" style="stop-color:#FFFEF2"/>
		<stop  offset="0.1475" style="stop-color:#FFFDE2"/>
		<stop  offset="0.1852" style="stop-color:#FFFCCC"/>
		<stop  offset="0.2209" style="stop-color:#FFFBAE"/>
		<stop  offset="0.2551" style="stop-color:#FFF98A"/>
		<stop  offset="0.288" style="stop-color:#FFF65F"/>
		<stop  offset="0.3192" style="stop-color:#FFF42F"/>
		<stop  offset="0.3455" style="stop-color:#FFF100"/>
		<stop  offset="0.8424" style="stop-color:#FFF209"/>
		<stop  offset="1" style="stop-color:#EA5514"/>
	</radialGradient>
	<path fill="url(#SVGID_1_)" stroke="#231815" stroke-width="3" stroke-miterlimit="10" d="M251.207,481.332
		c0,0-88.509,23.147-92.848-35.279s-53.224-10.485-27.864,27.891c25.359,38.376,52.865,52.15,120.712,42.513
		C319.055,506.818,251.207,481.332,251.207,481.332z"/>
	
		<radialGradient id="SVGID_2_" cx="-1564.6777" cy="1054.0215" r="39.5335" gradientTransform="matrix(1.8338 0 0 1.8338 3208.127 -1446.5538)" gradientUnits="userSpaceOnUse">
		<stop  offset="0" style="stop-color:#FFFFFF"/>
		<stop  offset="0.0612" style="stop-color:#FFFFFC"/>
		<stop  offset="0.1069" style="stop-color:#FFFEF2"/>
		<stop  offset="0.1475" style="stop-color:#FFFDE2"/>
		<stop  offset="0.1852" style="stop-color:#FFFCCC"/>
		<stop  offset="0.2209" style="stop-color:#FFFBAE"/>
		<stop  offset="0.2551" style="stop-color:#FFF98A"/>
		<stop  offset="0.288" style="stop-color:#FFF65F"/>
		<stop  offset="0.3192" style="stop-color:#FFF42F"/>
		<stop  offset="0.3455" style="stop-color:#FFF100"/>
		<stop  offset="0.8424" style="stop-color:#FFF209"/>
		<stop  offset="1" style="stop-color:#EA5514"/>
	</radialGradient>
	<path fill="url(#SVGID_2_)" stroke="#231815" stroke-width="3" stroke-miterlimit="10" d="M311.896,481.242
		c0-54.212-11.248-93.117,12.869-93.117c24.12,0,43.672,43.947,43.672,98.165c0,54.208-19.552,98.161-43.672,98.161
		C300.648,584.451,311.895,535.46,311.896,481.242z"/>
	
		<radialGradient id="SVGID_3_" cx="-1618.1836" cy="1056.0215" r="39.5335" gradientTransform="matrix(1.8338 0 0 1.8338 3208.127 -1446.5538)" gradientUnits="userSpaceOnUse">
		<stop  offset="0" style="stop-color:#FFFFFF"/>
		<stop  offset="0.0612" style="stop-color:#FFFFFC"/>
		<stop  offset="0.1069" style="stop-color:#FFFEF2"/>
		<stop  offset="0.1475" style="stop-color:#FFFDE2"/>
		<stop  offset="0.1852" style="stop-color:#FFFCCC"/>
		<stop  offset="0.2209" style="stop-color:#FFFBAE"/>
		<stop  offset="0.2551" style="stop-color:#FFF98A"/>
		<stop  offset="0.288" style="stop-color:#FFF65F"/>
		<stop  offset="0.3192" style="stop-color:#FFF42F"/>
		<stop  offset="0.3455" style="stop-color:#FFF100"/>
		<stop  offset="0.8424" style="stop-color:#FFF209"/>
		<stop  offset="1" style="stop-color:#EA5514"/>
	</radialGradient>
	<path fill="url(#SVGID_3_)" stroke="#231815" stroke-width="3" stroke-miterlimit="10" d="M267.701,484.91
		c0-54.212,11.245-93.118-12.872-93.118c-24.118,0-43.669,43.948-43.669,98.165c0,54.208,19.551,98.161,43.669,98.161
		C278.948,588.118,267.701,539.127,267.701,484.91z"/>
	
		<radialGradient id="SVGID_4_" cx="-1591.0762" cy="1024.8223" r="53.383" gradientTransform="matrix(1.8338 0 0 1.8338 3208.127 -1446.5538)" gradientUnits="userSpaceOnUse">
		<stop  offset="0" style="stop-color:#FFFFFF"/>
		<stop  offset="0.0612" style="stop-color:#FFFFFC"/>
		<stop  offset="0.1069" style="stop-color:#FFFEF2"/>
		<stop  offset="0.1475" style="stop-color:#FFFDE2"/>
		<stop  offset="0.1852" style="stop-color:#FFFCCC"/>
		<stop  offset="0.2209" style="stop-color:#FFFBAE"/>
		<stop  offset="0.2551" style="stop-color:#FFF98A"/>
		<stop  offset="0.288" style="stop-color:#FFF65F"/>
		<stop  offset="0.3192" style="stop-color:#FFF42F"/>
		<stop  offset="0.3455" style="stop-color:#FFF100"/>
		<stop  offset="0.8424" style="stop-color:#FFF209"/>
		<stop  offset="1" style="stop-color:#EA5514"/>
	</radialGradient>
	<path fill="url(#SVGID_4_)" stroke="#231815" stroke-width="3" stroke-miterlimit="10" d="M377.79,432.742
		c0,59.319-25.713,107.412-90.849,107.412c-65.138,0-83.836-48.093-83.836-107.412c0-59.324,18.698-107.415,83.836-107.415
		C352.077,325.327,377.79,373.418,377.79,432.742z"/>
	
		<radialGradient id="SVGID_5_" cx="2084.4971" cy="-107.1255" r="53.3857" gradientTransform="matrix(1.0812 0 0 1.0812 -1961.1962 550.585)" gradientUnits="userSpaceOnUse">
		<stop  offset="0" style="stop-color:#FFFFFF"/>
		<stop  offset="0.1557" style="stop-color:#FFFFFC"/>
		<stop  offset="0.2719" style="stop-color:#FFFEF2"/>
		<stop  offset="0.3752" style="stop-color:#FFFDE2"/>
		<stop  offset="0.4712" style="stop-color:#FFFCCC"/>
		<stop  offset="0.5619" style="stop-color:#FFFBAE"/>
		<stop  offset="0.6488" style="stop-color:#FFF98A"/>
		<stop  offset="0.7328" style="stop-color:#FFF65F"/>
		<stop  offset="0.8121" style="stop-color:#FFF42F"/>
		<stop  offset="0.8788" style="stop-color:#FFF100"/>
		<stop  offset="1" style="stop-color:#FFFFFF"/>
	</radialGradient>
	<path fill="url(#SVGID_5_)" stroke="#231815" stroke-width="3" stroke-miterlimit="10" d="M344.104,434.759
		c0,34.977-15.162,63.335-53.569,63.335c-38.406,0-49.432-28.358-49.432-63.335c0-34.98,11.026-63.335,49.432-63.335
		C328.942,371.424,344.104,399.778,344.104,434.759z"/>
	<g>
		
			<radialGradient id="SVGID_6_" cx="-18316.5234" cy="4728.582" r="12.8403" gradientTransform="matrix(-0.7528 0.3913 0.4089 0.7332 -15485.3848 4254.0161)" gradientUnits="userSpaceOnUse">
			<stop  offset="0" style="stop-color:#3E3A39"/>
			<stop  offset="1" style="stop-color:#231815"/>
		</radialGradient>
		<path fill="url(#SVGID_6_)" d="M250.545,548.548c1.331,4.271-6.019,10.146-16.415,13.131c-2.97,0.851-3.727,2.844-6.381,3.056
			c-1.372-2.945-4.482-7.543-5.04-10.754c2.552-0.55,5.417-1.169,8.39-2.021C241.496,548.976,249.212,544.275,250.545,548.548z"/>
		
			<radialGradient id="SVGID_7_" cx="-18314.6523" cy="4746.2344" r="11.8273" gradientTransform="matrix(-0.7528 0.3913 0.4089 0.7332 -15485.3848 4254.0161)" gradientUnits="userSpaceOnUse">
			<stop  offset="0" style="stop-color:#3E3A39"/>
			<stop  offset="1" style="stop-color:#231815"/>
		</radialGradient>
		<path fill="url(#SVGID_7_)" d="M255.151,563.321c1.331,4.269-6.018,10.149-16.412,13.133c-0.676,0.192-1.344,0.366-2.009,0.525
			c-3.222-2.418-5.556-6.838-7.749-10.039c2.217-0.481,4.239,0.508,6.727-0.204C246.104,563.753,253.82,559.052,255.151,563.321z"/>
	</g>
	<g>
		
			<radialGradient id="SVGID_8_" cx="-18565.2109" cy="3274" r="12.8403" gradientTransform="matrix(-0.7853 0.294 0.2986 0.7883 -15418.749 3331.5903)" gradientUnits="userSpaceOnUse">
			<stop  offset="0" style="stop-color:#3E3A39"/>
			<stop  offset="1" style="stop-color:#231815"/>
		</radialGradient>
		<path fill="url(#SVGID_8_)" d="M151.379,449.928c0.717,4.455-7.228,9.39-17.746,11.021c-3.002,0.469-4.008,2.367-6.621,2.231
			c-0.935-3.13-3.338-8.147-3.445-11.437c2.556-0.217,5.427-0.465,8.434-0.931C142.52,449.178,150.661,445.472,151.379,449.928z"/>
		
			<radialGradient id="SVGID_9_" cx="-18563.3398" cy="3291.6582" r="11.8279" gradientTransform="matrix(-0.7853 0.294 0.2986 0.7883 -15418.749 3331.5903)" gradientUnits="userSpaceOnUse">
			<stop  offset="0" style="stop-color:#3E3A39"/>
			<stop  offset="1" style="stop-color:#231815"/>
		</radialGradient>
		<path fill="url(#SVGID_9_)" d="M153.862,465.343c0.718,4.456-7.227,9.392-17.742,11.026c-0.684,0.103-1.358,0.189-2.027,0.263
			c-2.807-2.847-4.479-7.58-6.18-11.075c2.223-0.193,4.056,1.062,6.572,0.671C145.002,464.595,153.146,460.89,153.862,465.343z"/>
	</g>
	<g>
		
			<radialGradient id="SVGID_10_" cx="102.6572" cy="-5074.6152" r="12.8397" gradientTransform="matrix(0.8182 0.4553 -0.4538 0.8161 -2032.2697 4578.1719)" gradientUnits="userSpaceOnUse">
			<stop  offset="0" style="stop-color:#3E3A39"/>
			<stop  offset="1" style="stop-color:#231815"/>
		</radialGradient>
		<path fill="url(#SVGID_10_)" d="M340.371,477.373c-1.494,4.773,6.47,11.534,17.793,15.098c3.235,1.02,4.039,3.275,6.938,3.566
			c1.524-3.283,4.968-8.392,5.606-11.99c-2.778-0.67-5.9-1.426-9.139-2.444C350.246,478.037,341.869,472.597,340.371,477.373z"/>
		
			<radialGradient id="SVGID_11_" cx="104.5283" cy="-5056.9604" r="11.8272" gradientTransform="matrix(0.8182 0.4553 -0.4538 0.8161 -2032.2697 4578.1719)" gradientUnits="userSpaceOnUse">
			<stop  offset="0" style="stop-color:#3E3A39"/>
			<stop  offset="1" style="stop-color:#231815"/>
		</radialGradient>
		<path fill="url(#SVGID_11_)" d="M335.194,493.896c-1.496,4.774,6.469,11.536,17.789,15.101c0.735,0.231,1.465,0.435,2.189,0.628
			c3.541-2.652,6.135-7.577,8.561-11.13c-2.416-0.587-4.635,0.484-7.344-0.368C345.068,494.563,336.689,489.122,335.194,493.896z"/>
	</g>
	<g>
		
			<radialGradient id="SVGID_12_" cx="-18340.2559" cy="5213.7246" r="12.8397" gradientTransform="matrix(-0.8182 0.4553 0.4538 0.8161 -17145.5664 4578.1719)" gradientUnits="userSpaceOnUse">
			<stop  offset="0" style="stop-color:#3E3A39"/>
			<stop  offset="1" style="stop-color:#231815"/>
		</radialGradient>
		<path fill="url(#SVGID_12_)" d="M239.772,477.373c1.496,4.774-6.469,11.534-17.792,15.098c-3.236,1.02-4.041,3.275-6.938,3.567
			c-1.526-3.284-4.969-8.393-5.608-11.991c2.78-0.67,5.902-1.425,9.139-2.444C229.898,478.037,238.275,472.597,239.772,477.373z"/>
		
			<radialGradient id="SVGID_13_" cx="-18338.3848" cy="5231.3789" r="11.8285" gradientTransform="matrix(-0.8182 0.4553 0.4538 0.8161 -17145.5664 4578.1719)" gradientUnits="userSpaceOnUse">
			<stop  offset="0" style="stop-color:#3E3A39"/>
			<stop  offset="1" style="stop-color:#231815"/>
		</radialGradient>
		<path fill="url(#SVGID_13_)" d="M244.951,493.896c1.496,4.774-6.469,11.536-17.791,15.101c-0.734,0.231-1.464,0.435-2.189,0.628
			c-3.541-2.652-6.134-7.575-8.562-11.13c2.418-0.587,4.636,0.484,7.345-0.368C235.076,494.563,243.454,489.122,244.951,493.896z"/>
	</g>
	<g>
		
			<radialGradient id="SVGID_14_" cx="606.3047" cy="-5377.3887" r="12.8404" gradientTransform="matrix(0.7528 0.3913 -0.4089 0.7332 -2312.2844 4254.0161)" gradientUnits="userSpaceOnUse">
			<stop  offset="0" style="stop-color:#3E3A39"/>
			<stop  offset="1" style="stop-color:#231815"/>
		</radialGradient>
		<path fill="url(#SVGID_14_)" d="M330.155,543.702c-1.33,4.27,6.019,10.146,16.415,13.13c2.971,0.852,3.727,2.845,6.381,3.057
			c1.372-2.945,4.482-7.543,5.04-10.754c-2.553-0.55-5.417-1.17-8.39-2.021C339.205,544.13,331.488,539.43,330.155,543.702z"/>
		
			<radialGradient id="SVGID_15_" cx="608.1758" cy="-5359.7358" r="11.8276" gradientTransform="matrix(0.7528 0.3913 -0.4089 0.7332 -2312.2844 4254.0161)" gradientUnits="userSpaceOnUse">
			<stop  offset="0" style="stop-color:#3E3A39"/>
			<stop  offset="1" style="stop-color:#231815"/>
		</radialGradient>
		<path fill="url(#SVGID_15_)" d="M325.548,558.476c-1.329,4.269,6.019,10.149,16.413,13.133c0.677,0.192,1.344,0.366,2.01,0.525
			c3.222-2.418,5.556-6.838,7.749-10.04c-2.217-0.481-4.239,0.508-6.728-0.203C334.597,558.907,326.88,554.207,325.548,558.476z"/>
	</g>
	
		<radialGradient id="SVGID_16_" cx="-697.2666" cy="530.9668" r="45.0067" gradientTransform="matrix(1.5345 0 0 1.5345 1174.1133 -734.127)" gradientUnits="userSpaceOnUse">
		<stop  offset="0" style="stop-color:#FFFFFF"/>
		<stop  offset="0.0612" style="stop-color:#FFFFFC"/>
		<stop  offset="0.1069" style="stop-color:#FFFEF2"/>
		<stop  offset="0.1475" style="stop-color:#FFFDE2"/>
		<stop  offset="0.1852" style="stop-color:#FFFCCC"/>
		<stop  offset="0.2209" style="stop-color:#FFFBAE"/>
		<stop  offset="0.2551" style="stop-color:#FFF98A"/>
		<stop  offset="0.288" style="stop-color:#FFF65F"/>
		<stop  offset="0.3192" style="stop-color:#FFF42F"/>
		<stop  offset="0.3455" style="stop-color:#FFF100"/>
		<stop  offset="0.8424" style="stop-color:#FFF209"/>
		<stop  offset="1" style="stop-color:#EA5514"/>
	</radialGradient>
	<path fill="url(#SVGID_16_)" stroke="#231815" stroke-width="3" stroke-miterlimit="10" d="M33.715,80.627
		c0,37.358,31.547,67.64,70.457,67.64c38.913,0,70.457-30.282,70.457-67.64c0-37.355-31.543-67.636-70.457-67.636
		C65.262,12.992,33.715,43.272,33.715,80.627z"/>
	<g>
		
			<radialGradient id="SVGID_17_" cx="-718.4907" cy="509.3418" r="14.3368" gradientTransform="matrix(1.5345 0 0 1.5345 1174.1133 -734.127)" gradientUnits="userSpaceOnUse">
			<stop  offset="0" style="stop-color:#3E3A39"/>
			<stop  offset="1" style="stop-color:#231815"/>
		</radialGradient>
		<path fill="url(#SVGID_17_)" d="M93.588,65.904c-5.813,5.813-21.678-0.627-35.435-14.387c-3.933-3.933-7.248-8.033-9.867-12.027
			c3.623-4.724,7.868-8.97,12.621-12.641c3.08,3.533,6.542,7.502,10.478,11.438C85.141,52.045,99.401,60.089,93.588,65.904z"/>
		
			<radialGradient id="SVGID_18_" cx="-729.2236" cy="523.0273" r="12.833" gradientTransform="matrix(1.5345 0 0 1.5345 1174.1133 -734.127)" gradientUnits="userSpaceOnUse">
			<stop  offset="0" style="stop-color:#3E3A39"/>
			<stop  offset="1" style="stop-color:#231815"/>
		</radialGradient>
		<path fill="url(#SVGID_18_)" d="M73.473,86.02c-5.815,5.814-21.681-0.627-35.435-14.384c-0.894-0.893-1.744-1.797-2.576-2.704
			c1.179-7.173,3.542-13.963,6.875-20.2c2.686,3.069,5.639,6.38,8.932,9.674C65.026,72.162,79.284,80.208,73.473,86.02z"/>
	</g>
	
		<radialGradient id="SVGID_19_" cx="-12660.5684" cy="538.2969" r="45.0067" gradientTransform="matrix(-1.5345 0 0 1.5345 -18934.7949 -734.127)" gradientUnits="userSpaceOnUse">
		<stop  offset="0" style="stop-color:#FFFFFF"/>
		<stop  offset="0.0612" style="stop-color:#FFFFFC"/>
		<stop  offset="0.1069" style="stop-color:#FFFEF2"/>
		<stop  offset="0.1475" style="stop-color:#FFFDE2"/>
		<stop  offset="0.1852" style="stop-color:#FFFCCC"/>
		<stop  offset="0.2209" style="stop-color:#FFFBAE"/>
		<stop  offset="0.2551" style="stop-color:#FFF98A"/>
		<stop  offset="0.288" style="stop-color:#FFF65F"/>
		<stop  offset="0.3192" style="stop-color:#FFF42F"/>
		<stop  offset="0.3455" style="stop-color:#FFF100"/>
		<stop  offset="0.8424" style="stop-color:#FFF209"/>
		<stop  offset="1" style="stop-color:#EA5514"/>
	</radialGradient>
	<path fill="url(#SVGID_19_)" stroke="#231815" stroke-width="3" stroke-miterlimit="10" d="M563.029,91.875
		c0,37.359-31.547,67.641-70.456,67.641c-38.913,0-70.456-30.282-70.456-67.641c0-37.353,31.543-67.636,70.456-67.636
		C531.482,24.239,563.029,54.522,563.029,91.875z"/>
	<g>
		
			<radialGradient id="SVGID_20_" cx="-12681.792" cy="516.6719" r="14.3372" gradientTransform="matrix(-1.5345 0 0 1.5345 -18934.7949 -734.127)" gradientUnits="userSpaceOnUse">
			<stop  offset="0" style="stop-color:#3E3A39"/>
			<stop  offset="1" style="stop-color:#231815"/>
		</radialGradient>
		<path fill="url(#SVGID_20_)" d="M503.155,77.152c5.815,5.814,21.68-0.627,35.436-14.385c3.934-3.933,7.248-8.037,9.866-12.028
			c-3.62-4.722-7.869-8.971-12.62-12.641c-3.081,3.533-6.543,7.5-10.477,11.435C511.602,63.293,497.343,71.337,503.155,77.152z"/>
		
			<radialGradient id="SVGID_21_" cx="-12692.5254" cy="530.3564" r="12.8337" gradientTransform="matrix(-1.5345 0 0 1.5345 -18934.7949 -734.127)" gradientUnits="userSpaceOnUse">
			<stop  offset="0" style="stop-color:#3E3A39"/>
			<stop  offset="1" style="stop-color:#231815"/>
		</radialGradient>
		<path fill="url(#SVGID_21_)" d="M523.271,97.268c5.813,5.814,21.68-0.627,35.436-14.384c0.895-0.892,1.744-1.798,2.576-2.706
			c-1.179-7.171-3.541-13.962-6.875-20.199c-2.686,3.069-5.638,6.379-8.932,9.675C531.72,83.41,517.461,91.456,523.271,97.268z"/>
	</g>
	
		<radialGradient id="SVGID_22_" cx="-1588.563" cy="916.7246" r="125.2885" gradientTransform="matrix(1.8338 0 0 1.8338 3208.127 -1446.5538)" gradientUnits="userSpaceOnUse">
		<stop  offset="0" style="stop-color:#FFFFFF"/>
		<stop  offset="0.0612" style="stop-color:#FFFFFC"/>
		<stop  offset="0.1069" style="stop-color:#FFFEF2"/>
		<stop  offset="0.1475" style="stop-color:#FFFDE2"/>
		<stop  offset="0.1852" style="stop-color:#FFFCCC"/>
		<stop  offset="0.2209" style="stop-color:#FFFBAE"/>
		<stop  offset="0.2551" style="stop-color:#FFF98A"/>
		<stop  offset="0.288" style="stop-color:#FFF65F"/>
		<stop  offset="0.3192" style="stop-color:#FFF42F"/>
		<stop  offset="0.3455" style="stop-color:#FFF100"/>
		<stop  offset="0.8424" style="stop-color:#FFF209"/>
		<stop  offset="1" style="stop-color:#EA5514"/>
	</radialGradient>
	<path fill="url(#SVGID_22_)" stroke="#231815" stroke-width="3" stroke-miterlimit="10" d="M524.863,242.955
		c9.784,149.572-103.001,172.929-230.077,172.929c-127.071,0-232.586-24.646-230.084-172.929
		c1.685-99.729,103.013-189.81,230.08-189.81C421.859,53.145,518.353,143.407,524.863,242.955z"/>
	<linearGradient id="SVGID_23_" gradientUnits="userSpaceOnUse" x1="292.6421" y1="128.2432" x2="292.6421" y2="533.3244">
		<stop  offset="0" style="stop-color:#FFFFFF"/>
		<stop  offset="1" style="stop-color:#FFF100"/>
	</linearGradient>
	<path fill="url(#SVGID_23_)" stroke="#231815" stroke-width="3" stroke-miterlimit="10" d="M480.628,243.011
		c8.004,119.097-84.256,145.594-188.21,145.594c-103.942,0-190.258-27.526-188.21-145.592
		c1.378-79.409,84.268-151.135,188.21-151.135C396.369,91.877,475.3,163.75,480.628,243.011z"/>
	
		<radialGradient id="SVGID_24_" cx="-2601.5991" cy="1621.4385" r="12.1373" gradientTransform="matrix(4.2261 0 0 4.2261 11287.1563 -6700.6597)" gradientUnits="userSpaceOnUse">
		<stop  offset="0" style="stop-color:#7F4F21"/>
		<stop  offset="1" style="stop-color:#40220F"/>
	</radialGradient>
	<path fill="url(#SVGID_24_)" d="M292.418,211.924c4.647,0,8.664-16.309,10.556-39.935c17.276-1.346,29.996-5.897,29.996-11.311
		c0-5.298-12.196-9.78-28.915-11.218c0.045-2.656,0.079-5.359,0.079-8.101c0-2.741-0.034-5.442-0.079-8.1
		c16.719-1.454,28.915-5.925,28.915-11.222c0-5.418-12.72-9.967-29.998-11.312c-0.544-6.792-1.262-12.981-2.119-18.35
		c-5.523-0.411-11.108-0.663-16.739-0.746c-0.915,5.544-1.679,11.985-2.249,19.096c-17.279,1.345-29.996,5.893-29.996,11.312
		c0,5.297,12.191,9.768,28.914,11.222c-0.052,2.658-0.079,5.359-0.079,8.1c0,2.742,0.027,5.445,0.084,8.101
		c-16.727,1.438-28.918,5.919-28.918,11.218c0,5.414,12.716,9.965,29.996,11.311C283.759,195.615,287.771,211.924,292.418,211.924z"
		/>
	
		<radialGradient id="SVGID_25_" cx="-2615.7363" cy="1631.2344" r="3.5002" gradientTransform="matrix(4.2261 0 0 4.2261 11287.1563 -6700.6597)" gradientUnits="userSpaceOnUse">
		<stop  offset="0" style="stop-color:#7F4F21"/>
		<stop  offset="1" style="stop-color:#40220F"/>
	</radialGradient>
	<polygon fill="url(#SVGID_25_)" points="248.404,193.177 244.402,186.239 240.394,193.177 238.313,196.78 236.234,193.177 
		232.225,186.239 228.218,193.177 226.591,196.006 224.952,193.177 220.946,186.239 216.937,193.177 212.937,200.113 
		220.946,200.113 224.216,200.113 228.96,200.113 232.225,200.113 236.392,200.113 240.236,200.113 244.402,200.113 252.41,200.113 
			"/>
	
		<radialGradient id="SVGID_26_" cx="-2585.8286" cy="1631.2344" r="3.5005" gradientTransform="matrix(4.2261 0 0 4.2261 11287.1563 -6700.6597)" gradientUnits="userSpaceOnUse">
		<stop  offset="0" style="stop-color:#7F4F21"/>
		<stop  offset="1" style="stop-color:#40220F"/>
	</radialGradient>
	<polygon fill="url(#SVGID_26_)" points="374.797,193.177 370.794,186.239 366.791,193.177 364.707,196.78 362.626,193.177 
		358.618,186.239 354.614,193.177 352.981,196.006 351.345,193.177 347.341,186.239 343.335,193.177 339.33,200.113 
		347.341,200.113 350.61,200.113 355.354,200.113 358.618,200.113 362.781,200.113 366.631,200.113 370.794,200.113 
		378.806,200.113 	"/>
	
		<radialGradient id="SVGID_27_" cx="-2574.6084" cy="1654.834" r="7.3116" gradientTransform="matrix(4.2261 0 0 4.2261 11287.1563 -6700.6597)" gradientUnits="userSpaceOnUse">
		<stop  offset="0" style="stop-color:#FFFFFF"/>
		<stop  offset="1" style="stop-color:#F39800"/>
	</radialGradient>
	<path fill="url(#SVGID_27_)" d="M444.67,295.127c0,12.966-17.093,19.036-38.18,19.036c-21.09,0-38.187-6.069-38.187-19.032
		c0-12.958,17.097-23.464,38.187-23.464C427.577,271.667,444.67,282.173,444.67,295.127z"/>
	
		<radialGradient id="SVGID_28_" cx="-2628.7559" cy="1654.835" r="7.3119" gradientTransform="matrix(4.2261 0 0 4.2261 11287.1563 -6700.6597)" gradientUnits="userSpaceOnUse">
		<stop  offset="0" style="stop-color:#FFFFFF"/>
		<stop  offset="1" style="stop-color:#F39800"/>
	</radialGradient>
	<path fill="url(#SVGID_28_)" d="M215.836,295.134c0,12.959-17.102,19.032-38.186,19.032c-21.092,0-38.186-6.073-38.186-19.032
		c0-12.957,17.094-23.469,38.186-23.469C198.734,271.665,215.836,282.177,215.836,295.134z"/>
	
		<radialGradient id="SVGID_29_" cx="-2601.5991" cy="1655.7383" r="9.9525" gradientTransform="matrix(4.2261 0 0 4.2261 11287.1563 -6700.6597)" gradientUnits="userSpaceOnUse">
		<stop  offset="0" style="stop-color:#FFFCCC"/>
		<stop  offset="0.225" style="stop-color:#FFFCC9"/>
		<stop  offset="0.3708" style="stop-color:#FFFBC1"/>
		<stop  offset="0.4941" style="stop-color:#FFFBB2"/>
		<stop  offset="0.6049" style="stop-color:#FFF99D"/>
		<stop  offset="0.7074" style="stop-color:#FFF881"/>
		<stop  offset="0.8037" style="stop-color:#FFF660"/>
		<stop  offset="0.8952" style="stop-color:#FFF438"/>
		<stop  offset="0.9806" style="stop-color:#FFF20B"/>
		<stop  offset="1" style="stop-color:#FFF100"/>
	</radialGradient>
	<path fill="url(#SVGID_29_)" stroke="#6A3906" stroke-width="2" stroke-miterlimit="10" d="M343.411,301.813
		c0,19.719-27.462,25.548-55.62,25.548c-28.16,0-46.364-5.829-46.364-25.548c0-19.722,22.833-35.711,50.991-35.711
		C320.58,266.102,343.411,282.09,343.411,301.813z"/>
	
		<radialGradient id="SVGID_30_" cx="-2601.5986" cy="1648.0713" r="3.7615" gradientTransform="matrix(4.2261 0 0 4.2261 11287.1563 -6700.6597)" gradientUnits="userSpaceOnUse">
		<stop  offset="0" style="stop-color:#7F4F21"/>
		<stop  offset="1" style="stop-color:#40220F"/>
	</radialGradient>
	<path fill="url(#SVGID_30_)" d="M308.317,264.335c0,8.776-7.117,15.896-15.899,15.896c-8.774,0-15.893-7.119-15.893-15.896
		c0-8.792,7.118-15.899,15.893-15.899C301.2,248.436,308.317,255.543,308.317,264.335z"/>
	<g>
		
			<radialGradient id="SVGID_31_" cx="1285.6221" cy="-9.8877" r="12.84" gradientTransform="matrix(1.1335 0.0012 0.0078 1.1335 -950.3591 266.4952)" gradientUnits="userSpaceOnUse">
			<stop  offset="0" style="stop-color:#3E3A39"/>
			<stop  offset="1" style="stop-color:#231815"/>
		</radialGradient>
		<path fill="url(#SVGID_31_)" d="M488.279,258.876c1.269,5.948,13.688,8.431,27.746,5.542c4.016-0.825,6.207,1.094,9.436-0.303
			c-0.35-4.385,0.236-11.833-1.234-16.028c-3.327,0.925-7.068,1.964-11.089,2.789C499.084,253.764,487.012,252.925,488.279,258.876z
			"/>
		
			<radialGradient id="SVGID_32_" cx="1287.4941" cy="7.7676" r="11.8276" gradientTransform="matrix(1.1335 0.0012 0.0078 1.1335 -950.3591 266.4952)" gradientUnits="userSpaceOnUse">
			<stop  offset="0" style="stop-color:#3E3A39"/>
			<stop  offset="1" style="stop-color:#231815"/>
		</radialGradient>
		<path fill="url(#SVGID_32_)" d="M492.665,279.462c1.268,5.948,13.688,8.43,27.744,5.543c0.911-0.186,1.803-0.398,2.683-0.621
			c2.15-4.901,1.952-11.656,2.393-16.855c-2.897,0.798-4.598,3.244-7.961,3.936C503.469,274.351,491.397,273.513,492.665,279.462z"
			/>
	</g>
	<g>
		
			<radialGradient id="SVGID_33_" cx="-15423.3027" cy="6.6367" r="12.84" gradientTransform="matrix(-1.1335 0.0012 -0.0078 1.1335 -17398.4531 266.4952)" gradientUnits="userSpaceOnUse">
			<stop  offset="0" style="stop-color:#3E3A39"/>
			<stop  offset="1" style="stop-color:#231815"/>
		</radialGradient>
		<path fill="url(#SVGID_33_)" d="M102.057,257.35c-1.268,5.948-13.689,8.431-27.746,5.542c-4.017-0.825-6.207,1.094-9.436-0.303
			c0.349-4.385-0.236-11.833,1.234-16.028c3.329,0.926,7.068,1.964,11.088,2.79C91.253,252.238,103.324,251.399,102.057,257.35z"/>
		
			<radialGradient id="SVGID_34_" cx="-15421.4307" cy="24.292" r="11.8275" gradientTransform="matrix(-1.1335 0.0012 -0.0078 1.1335 -17398.4531 266.4952)" gradientUnits="userSpaceOnUse">
			<stop  offset="0" style="stop-color:#3E3A39"/>
			<stop  offset="1" style="stop-color:#231815"/>
		</radialGradient>
		<path fill="url(#SVGID_34_)" d="M97.671,277.937c-1.268,5.948-13.689,8.43-27.744,5.544c-0.912-0.187-1.803-0.4-2.683-0.623
			c-2.151-4.901-1.952-11.656-2.392-16.855c2.897,0.798,4.597,3.245,7.959,3.936C86.868,272.826,98.939,271.988,97.671,277.937z"/>
	</g>
	
		<radialGradient id="SVGID_35_" cx="-2047.5205" cy="1478.5928" r="11.7032" gradientTransform="matrix(3.4048 0 0 3.4048 7361.1479 -4788.7817)" gradientUnits="userSpaceOnUse">
		<stop  offset="0" style="stop-color:#7F4F21"/>
		<stop  offset="1" style="stop-color:#40220F"/>
	</radialGradient>
	<path fill="url(#SVGID_35_)" d="M428.623,245.464c0,22.578-17.364,40.88-38.791,40.88c-21.423,0-38.789-18.3-38.789-40.877
		c0-22.575,17.366-40.877,38.789-40.877C411.259,204.589,428.623,222.892,428.623,245.464z"/>
	<path fill="#FFFFFF" d="M410.389,232.597c0,5.671-4.604,10.28-10.281,10.28c-5.675,0-10.275-4.609-10.275-10.28
		c0-5.679,4.601-10.281,10.275-10.281C405.785,222.315,410.389,226.918,410.389,232.597z"/>
	<path fill="#FFFFFF" d="M395.955,252.255c0,9.425-7.639,17.059-17.065,17.059c-9.426,0-17.06-7.633-17.06-17.059
		c0-9.423,7.634-17.067,17.06-17.067C388.316,235.188,395.955,242.832,395.955,252.255z"/>
	
		<radialGradient id="SVGID_36_" cx="-2104.9883" cy="1478.5928" r="11.7032" gradientTransform="matrix(3.4048 0 0 3.4048 7361.1479 -4788.7817)" gradientUnits="userSpaceOnUse">
		<stop  offset="0" style="stop-color:#7F4F21"/>
		<stop  offset="1" style="stop-color:#40220F"/>
	</radialGradient>
	<path fill="url(#SVGID_36_)" d="M232.958,245.464c0,22.578-17.363,40.88-38.79,40.88c-21.423,0-38.79-18.3-38.79-40.877
		c0-22.574,17.367-40.877,38.79-40.877C215.595,204.589,232.958,222.892,232.958,245.464z"/>
	<path fill="#FFFFFF" d="M214.724,232.597c0,5.671-4.602,10.28-10.281,10.28c-5.674,0-10.274-4.609-10.274-10.28
		c0-5.679,4.6-10.281,10.274-10.281C210.122,222.315,214.724,226.918,214.724,232.597z"/>
	<path fill="#FFFFFF" d="M200.291,252.255c0,9.425-7.637,17.059-17.063,17.059c-9.427,0-17.061-7.633-17.061-17.059
		c0-9.423,7.634-17.067,17.061-17.067C192.654,235.188,200.291,242.832,200.291,252.255z"/>
	<g>
		
			<radialGradient id="SVGID_37_" cx="-16002.917" cy="2725.752" r="37.879" gradientTransform="matrix(-1.0812 0.3143 -0.3143 -1.0812 -16109.5459 8372.9756)" gradientUnits="userSpaceOnUse">
			<stop  offset="0" style="stop-color:#FFFFFF"/>
			<stop  offset="0.0612" style="stop-color:#FFFFFC"/>
			<stop  offset="0.1069" style="stop-color:#FFFEF2"/>
			<stop  offset="0.1475" style="stop-color:#FFFDE2"/>
			<stop  offset="0.1852" style="stop-color:#FFFCCC"/>
			<stop  offset="0.2209" style="stop-color:#FFFBAE"/>
			<stop  offset="0.2551" style="stop-color:#FFF98A"/>
			<stop  offset="0.288" style="stop-color:#FFF65F"/>
			<stop  offset="0.3192" style="stop-color:#FFF42F"/>
			<stop  offset="0.3455" style="stop-color:#FFF100"/>
			<stop  offset="0.8424" style="stop-color:#FFF209"/>
			<stop  offset="1" style="stop-color:#EA5514"/>
		</radialGradient>
		<path fill="url(#SVGID_37_)" stroke="#231815" stroke-width="3" stroke-miterlimit="10" d="M342.655,388.274
			c23.936,17.56,44.028,22.691,37.775,38.703c-6.25,16.015-30.722,14.764-54.657-2.794c-23.935-17.558-38.271-44.771-32.02-60.784
			C300.005,347.385,318.72,370.718,342.655,388.274z"/>
		<g>
			
				<radialGradient id="SVGID_38_" cx="3134.3379" cy="10386.4063" r="12.8403" gradientTransform="matrix(0.4522 -0.5826 0.5982 0.458 -7300.1421 -2536.4949)" gradientUnits="userSpaceOnUse">
				<stop  offset="0" style="stop-color:#3E3A39"/>
				<stop  offset="1" style="stop-color:#231815"/>
			</radialGradient>
			<path fill="url(#SVGID_38_)" d="M323.914,404.584c3.629,1.777,9.881-3.604,13.964-12.018c1.168-2.396,3.048-2.742,3.603-4.972
				c-2.442-1.608-6.119-4.944-8.909-5.901c-0.84,2.092-1.784,4.438-2.951,6.846C325.534,396.946,320.283,402.813,323.914,404.584z"
				/>
			
				<radialGradient id="SVGID_39_" cx="3136.207" cy="10404.0625" r="11.8295" gradientTransform="matrix(0.4522 -0.5826 0.5982 0.458 -7300.1421 -2536.4949)" gradientUnits="userSpaceOnUse">
				<stop  offset="0" style="stop-color:#3E3A39"/>
				<stop  offset="1" style="stop-color:#231815"/>
			</radialGradient>
			<path fill="url(#SVGID_39_)" d="M336.468,410.722c3.629,1.773,9.884-3.606,13.966-12.015c0.263-0.545,0.512-1.089,0.743-1.634
				c-1.717-3.104-5.34-5.752-7.897-8.101c-0.733,1.815-0.128,3.691-1.104,5.699C338.091,403.08,332.839,408.949,336.468,410.722z"/>
		</g>
		
			<radialGradient id="SVGID_40_" cx="-51.9961" cy="7066.9385" r="37.8778" gradientTransform="matrix(1.2126 0.3524 0.3524 -1.2124 -2178.209 8980.1299)" gradientUnits="userSpaceOnUse">
			<stop  offset="0" style="stop-color:#FFFFFF"/>
			<stop  offset="0.0612" style="stop-color:#FFFFFC"/>
			<stop  offset="0.1069" style="stop-color:#FFFEF2"/>
			<stop  offset="0.1475" style="stop-color:#FFFDE2"/>
			<stop  offset="0.1852" style="stop-color:#FFFCCC"/>
			<stop  offset="0.2209" style="stop-color:#FFFBAE"/>
			<stop  offset="0.2551" style="stop-color:#FFF98A"/>
			<stop  offset="0.288" style="stop-color:#FFF65F"/>
			<stop  offset="0.3192" style="stop-color:#FFF42F"/>
			<stop  offset="0.3455" style="stop-color:#FFF100"/>
			<stop  offset="0.8424" style="stop-color:#FFF209"/>
			<stop  offset="1" style="stop-color:#EA5514"/>
		</radialGradient>
		<path fill="url(#SVGID_40_)" stroke="#231815" stroke-width="3" stroke-miterlimit="10" d="M242.082,384.047
			c-26.842,19.69-49.371,25.444-42.361,43.4c7.01,17.957,34.451,16.554,61.293-3.135c26.84-19.688,42.918-50.203,35.906-68.16
			S268.922,364.359,242.082,384.047z"/>
		<g>
			
				<radialGradient id="SVGID_41_" cx="-12550.0449" cy="-8869.0664" r="12.8394" gradientTransform="matrix(-0.5071 -0.6533 -0.6708 0.5135 -12057.9072 -3254.0413)" gradientUnits="userSpaceOnUse">
				<stop  offset="0" style="stop-color:#3E3A39"/>
				<stop  offset="1" style="stop-color:#231815"/>
			</radialGradient>
			<path fill="url(#SVGID_41_)" d="M263.099,402.335c-4.069,1.991-11.079-4.041-15.658-13.475c-1.311-2.689-3.419-3.076-4.04-5.576
				c2.739-1.804,6.86-5.545,9.989-6.616c0.941,2.345,2,4.975,3.31,7.676C261.283,393.77,267.169,400.351,263.099,402.335z"/>
			
				<radialGradient id="SVGID_42_" cx="-12548.1758" cy="-8851.4092" r="11.8288" gradientTransform="matrix(-0.5071 -0.6533 -0.6708 0.5135 -12057.9072 -3254.0413)" gradientUnits="userSpaceOnUse">
				<stop  offset="0" style="stop-color:#3E3A39"/>
				<stop  offset="1" style="stop-color:#231815"/>
			</radialGradient>
			<path fill="url(#SVGID_42_)" d="M249.019,409.217c-4.068,1.988-11.081-4.044-15.66-13.471c-0.294-0.611-0.573-1.222-0.834-1.834
				c1.928-3.479,5.991-6.45,8.859-9.082c0.822,2.036,0.143,4.138,1.238,6.389C247.2,400.647,253.089,407.229,249.019,409.217z"/>
		</g>
	</g>
</g>
</svg>
